G04*
G04 #@! TF.GenerationSoftware,Altium Limited,Altium Designer,23.10.1 (27)*
G04*
G04 Layer_Physical_Order=2*
G04 Layer_Color=16711680*
%FSLAX25Y25*%
%MOIN*%
G70*
G04*
G04 #@! TF.SameCoordinates,0F76161B-FDE3-46C5-8999-B479EBFB7D10*
G04*
G04*
G04 #@! TF.FilePolarity,Positive*
G04*
G01*
G75*
%ADD11C,0.01000*%
%ADD44C,0.06000*%
%ADD47C,0.07874*%
%ADD48C,0.01181*%
%ADD51O,0.03543X0.06693*%
%ADD52C,0.03543*%
%ADD53C,0.06299*%
G04:AMPARAMS|DCode=54|XSize=62.99mil|YSize=62.99mil|CornerRadius=15.75mil|HoleSize=0mil|Usage=FLASHONLY|Rotation=180.000|XOffset=0mil|YOffset=0mil|HoleType=Round|Shape=RoundedRectangle|*
%AMROUNDEDRECTD54*
21,1,0.06299,0.03150,0,0,180.0*
21,1,0.03150,0.06299,0,0,180.0*
1,1,0.03150,-0.01575,0.01575*
1,1,0.03150,0.01575,0.01575*
1,1,0.03150,0.01575,-0.01575*
1,1,0.03150,-0.01575,-0.01575*
%
%ADD54ROUNDEDRECTD54*%
%ADD55C,0.03937*%
%ADD56C,0.02362*%
%ADD57C,0.01000*%
%ADD58R,0.07000X0.07000*%
G36*
X277899Y292783D02*
X279338Y292496D01*
X280693Y291935D01*
X281913Y291120D01*
X282950Y290082D01*
X283766Y288863D01*
X284327Y287507D01*
X284613Y286068D01*
X284613Y285335D01*
Y265650D01*
X259318D01*
X259306Y87189D01*
X284613D01*
X284613Y23327D01*
Y22593D01*
X284327Y21154D01*
X283766Y19799D01*
X282950Y18579D01*
X281913Y17542D01*
X280693Y16726D01*
X279519Y16240D01*
X20164D01*
X19369Y16570D01*
X18375Y17234D01*
X17529Y18079D01*
X16865Y19074D01*
X16407Y20178D01*
X16174Y21351D01*
Y21949D01*
Y285335D01*
Y286068D01*
X16460Y287507D01*
X17022Y288863D01*
X17837Y290082D01*
X18874Y291120D01*
X20094Y291935D01*
X21450Y292496D01*
X22888Y292783D01*
X23622D01*
X277165Y292783D01*
X277899Y292783D01*
D02*
G37*
%LPC*%
G36*
X118970Y282185D02*
X118037D01*
X117136Y281944D01*
X116328Y281477D01*
X115669Y280817D01*
X115202Y280009D01*
X114961Y279108D01*
Y278175D01*
X115202Y277274D01*
X115669Y276466D01*
X116328Y275806D01*
X117136Y275340D01*
X118037Y275098D01*
X118970D01*
X119872Y275340D01*
X120680Y275806D01*
X121339Y276466D01*
X121806Y277274D01*
X122047Y278175D01*
Y279108D01*
X121806Y280009D01*
X121339Y280817D01*
X120680Y281477D01*
X119872Y281944D01*
X118970Y282185D01*
D02*
G37*
G36*
X273975Y288976D02*
X272482D01*
X271018Y288685D01*
X269638Y288114D01*
X268397Y287284D01*
X267342Y286229D01*
X266512Y284987D01*
X265941Y283608D01*
X265650Y282144D01*
Y280651D01*
X265941Y279187D01*
X266512Y277808D01*
X267342Y276567D01*
X268397Y275511D01*
X269638Y274681D01*
X271018Y274110D01*
X272482Y273819D01*
X273975D01*
X275439Y274110D01*
X276818Y274681D01*
X278060Y275511D01*
X279115Y276567D01*
X279944Y277808D01*
X280516Y279187D01*
X280807Y280651D01*
Y282144D01*
X280516Y283608D01*
X279944Y284987D01*
X279115Y286229D01*
X278060Y287284D01*
X276818Y288114D01*
X275439Y288685D01*
X273975Y288976D01*
D02*
G37*
G36*
X28306D02*
X26813D01*
X25348Y288685D01*
X23969Y288114D01*
X22728Y287284D01*
X21672Y286229D01*
X20843Y284987D01*
X20272Y283608D01*
X19980Y282144D01*
Y280651D01*
X20272Y279187D01*
X20843Y277808D01*
X21672Y276567D01*
X22728Y275511D01*
X23969Y274681D01*
X25348Y274110D01*
X26813Y273819D01*
X28306D01*
X29770Y274110D01*
X31149Y274681D01*
X32390Y275511D01*
X33446Y276567D01*
X34275Y277808D01*
X34846Y279187D01*
X35138Y280651D01*
Y282144D01*
X34846Y283608D01*
X34275Y284987D01*
X33446Y286229D01*
X32390Y287284D01*
X31149Y288114D01*
X29770Y288685D01*
X28306Y288976D01*
D02*
G37*
G36*
X128504Y283010D02*
X127373Y282861D01*
X126320Y282425D01*
X125415Y281730D01*
X124721Y280826D01*
X124285Y279772D01*
X124136Y278642D01*
X124285Y277511D01*
X124721Y276458D01*
X125415Y275553D01*
X132797Y268171D01*
X133702Y267477D01*
X134755Y267041D01*
X135886Y266892D01*
X166929D01*
X168060Y267041D01*
X169113Y267477D01*
X170018Y268171D01*
X170712Y269076D01*
X171148Y270129D01*
X171297Y271260D01*
X171148Y272390D01*
X170712Y273444D01*
X170018Y274348D01*
X169113Y275043D01*
X168060Y275479D01*
X166929Y275628D01*
X137695D01*
X131593Y281730D01*
X130688Y282425D01*
X129634Y282861D01*
X128504Y283010D01*
D02*
G37*
G36*
X118970Y266437D02*
X118037D01*
X117136Y266196D01*
X116328Y265729D01*
X115669Y265069D01*
X115202Y264261D01*
X114961Y263360D01*
Y262427D01*
X115202Y261526D01*
X115669Y260718D01*
X116328Y260058D01*
X117136Y259592D01*
X118037Y259350D01*
X118970D01*
X119872Y259592D01*
X120680Y260058D01*
X121339Y260718D01*
X121806Y261526D01*
X122047Y262427D01*
Y263360D01*
X121806Y264261D01*
X121339Y265069D01*
X120680Y265729D01*
X119872Y266196D01*
X118970Y266437D01*
D02*
G37*
G36*
X130079Y266476D02*
X126929D01*
X126161Y266323D01*
X125510Y265888D01*
X125075Y265237D01*
X124922Y264469D01*
Y261319D01*
X125075Y260551D01*
X125510Y259900D01*
X126161Y259465D01*
X126929Y259312D01*
X130079D01*
X130847Y259465D01*
X131498Y259900D01*
X131933Y260551D01*
X132086Y261319D01*
Y264469D01*
X131933Y265237D01*
X131498Y265888D01*
X130847Y266323D01*
X130079Y266476D01*
D02*
G37*
G36*
X201969Y246974D02*
X171181D01*
X170832Y246905D01*
X170537Y246707D01*
X162186Y238356D01*
X162129Y238389D01*
X161479Y238563D01*
X160805D01*
X160154Y238389D01*
X159570Y238052D01*
X159094Y237575D01*
X158757Y236992D01*
X158583Y236341D01*
Y235667D01*
X158757Y235016D01*
X159094Y234433D01*
X159570Y233956D01*
X159854Y233793D01*
Y233215D01*
X159570Y233052D01*
X159094Y232575D01*
X158930Y232292D01*
X158353D01*
X158189Y232575D01*
X157713Y233052D01*
X157130Y233389D01*
X156479Y233563D01*
X155805D01*
X155154Y233389D01*
X154570Y233052D01*
X154094Y232575D01*
X153930Y232292D01*
X153353D01*
X153190Y232575D01*
X152713Y233052D01*
X152430Y233215D01*
Y233793D01*
X152713Y233956D01*
X153190Y234433D01*
X153526Y235016D01*
X153701Y235667D01*
Y236341D01*
X153526Y236992D01*
X153190Y237575D01*
X152713Y238052D01*
X152129Y238389D01*
X151479Y238563D01*
X150805D01*
X150154Y238389D01*
X149570Y238052D01*
X149094Y237575D01*
X148930Y237292D01*
X148353D01*
X148189Y237575D01*
X147713Y238052D01*
X147129Y238389D01*
X146479Y238563D01*
X145805D01*
X145154Y238389D01*
X144570Y238052D01*
X144094Y237575D01*
X143930Y237292D01*
X143353D01*
X143190Y237575D01*
X142713Y238052D01*
X142130Y238389D01*
X141479Y238563D01*
X140805D01*
X140154Y238389D01*
X139570Y238052D01*
X139094Y237575D01*
X138930Y237292D01*
X138353D01*
X138189Y237575D01*
X137713Y238052D01*
X137129Y238389D01*
X136479Y238563D01*
X135805D01*
X135154Y238389D01*
X134570Y238052D01*
X134094Y237575D01*
X133930Y237292D01*
X133353D01*
X133189Y237575D01*
X132713Y238052D01*
X132130Y238389D01*
X131479Y238563D01*
X130805D01*
X130154Y238389D01*
X130085Y238349D01*
X125040Y243394D01*
X124970Y243441D01*
X124911Y243501D01*
X124823Y243539D01*
X124744Y243592D01*
X124716Y243597D01*
X124716Y243598D01*
X124660Y243609D01*
X124584Y243641D01*
X124555Y243648D01*
X124460Y243649D01*
X124367Y243667D01*
X96475D01*
X96126Y243598D01*
X95831Y243400D01*
X95538Y243108D01*
X95538Y243108D01*
X95483Y243053D01*
X95110Y242719D01*
X95110Y242719D01*
X94944Y242513D01*
X94782Y242343D01*
X94610Y242162D01*
X94585Y242123D01*
X92832Y240211D01*
X92841Y240203D01*
X90187Y237096D01*
X90148Y237026D01*
X90095Y236966D01*
X89904Y236641D01*
X89904Y236641D01*
X89903Y236641D01*
X89766Y236406D01*
X89745Y236346D01*
X89709Y236293D01*
X89687Y236180D01*
X89649Y236070D01*
X89652Y236007D01*
X89640Y235945D01*
X89640Y235672D01*
Y210000D01*
X89709Y209652D01*
X89907Y209356D01*
X108403Y190860D01*
X108699Y190662D01*
X109048Y190593D01*
X164209D01*
X166852Y187950D01*
X166814Y187857D01*
Y187153D01*
X167084Y186502D01*
X167582Y186003D01*
X168233Y185733D01*
X168938D01*
X169589Y186003D01*
X170087Y186502D01*
X170357Y187153D01*
Y187857D01*
X170087Y188509D01*
X169589Y189007D01*
X168938Y189277D01*
X168233D01*
X168141Y189238D01*
X165286Y192093D01*
X165322Y192321D01*
X165466Y192593D01*
X167161D01*
X167199Y192500D01*
X167697Y192002D01*
X168348Y191732D01*
X169053D01*
X169704Y192002D01*
X170203Y192500D01*
X170472Y193151D01*
Y193856D01*
X170203Y194508D01*
X169704Y195006D01*
X169053Y195276D01*
X168348D01*
X167697Y195006D01*
X167199Y194508D01*
X167161Y194415D01*
X110254D01*
X93431Y211238D01*
Y230622D01*
X93931Y230671D01*
X94185Y229393D01*
X94749Y228032D01*
X95568Y226806D01*
X96609Y225764D01*
X97835Y224946D01*
X99196Y224382D01*
X100641Y224095D01*
X102115D01*
X103560Y224382D01*
X104921Y224946D01*
X106146Y225764D01*
X107188Y226806D01*
X108007Y228032D01*
X108571Y229393D01*
X108858Y230838D01*
Y232312D01*
X108571Y233757D01*
X108007Y235118D01*
X107188Y236343D01*
X106146Y237385D01*
X104921Y238204D01*
X103560Y238768D01*
X102115Y239055D01*
X100641D01*
X99196Y238768D01*
X97835Y238204D01*
X96609Y237385D01*
X95568Y236343D01*
X94749Y235118D01*
X94185Y233757D01*
X93931Y232479D01*
X93431Y232528D01*
Y235272D01*
X93459Y235762D01*
X93473Y235796D01*
X93774Y236192D01*
X95022Y237818D01*
X97413Y240427D01*
X97905Y240451D01*
X120406D01*
X121885Y238972D01*
X121627Y238523D01*
X121479Y238563D01*
X120805D01*
X120154Y238389D01*
X119570Y238052D01*
X119094Y237575D01*
X118930Y237292D01*
X118353D01*
X118190Y237575D01*
X117713Y238052D01*
X117130Y238389D01*
X116479Y238563D01*
X115805D01*
X115154Y238389D01*
X114570Y238052D01*
X114094Y237575D01*
X113757Y236992D01*
X113583Y236341D01*
Y235667D01*
X113757Y235016D01*
X114094Y234433D01*
X114570Y233956D01*
X114854Y233793D01*
Y233215D01*
X114570Y233052D01*
X114094Y232575D01*
X113757Y231992D01*
X113583Y231341D01*
Y230667D01*
X113757Y230016D01*
X114094Y229433D01*
X114570Y228956D01*
X115154Y228619D01*
X115805Y228445D01*
X116479D01*
X117130Y228619D01*
X117713Y228956D01*
X118190Y229433D01*
X118353Y229716D01*
X118930D01*
X119094Y229433D01*
X119570Y228956D01*
X120154Y228619D01*
X120805Y228445D01*
X121479D01*
X122129Y228619D01*
X122713Y228956D01*
X123189Y229433D01*
X123353Y229716D01*
X123930D01*
X124094Y229433D01*
X124570Y228956D01*
X125154Y228619D01*
X125805Y228445D01*
X126479D01*
X127129Y228619D01*
X127713Y228956D01*
X128190Y229433D01*
X128353Y229716D01*
X128930D01*
X129094Y229433D01*
X129570Y228956D01*
X130154Y228619D01*
X130805Y228445D01*
X131479D01*
X132130Y228619D01*
X132713Y228956D01*
X133189Y229433D01*
X133353Y229716D01*
X133930D01*
X134094Y229433D01*
X134570Y228956D01*
X135154Y228619D01*
X135805Y228445D01*
X136479D01*
X137129Y228619D01*
X137713Y228956D01*
X138189Y229433D01*
X138353Y229716D01*
X138930D01*
X139094Y229433D01*
X139570Y228956D01*
X140154Y228619D01*
X140805Y228445D01*
X141479D01*
X142130Y228619D01*
X142713Y228956D01*
X143190Y229433D01*
X143353Y229716D01*
X143930D01*
X144094Y229433D01*
X144570Y228956D01*
X145154Y228619D01*
X145805Y228445D01*
X146479D01*
X147129Y228619D01*
X147713Y228956D01*
X148189Y229433D01*
X148353Y229716D01*
X148930D01*
X149094Y229433D01*
X149570Y228956D01*
X150154Y228619D01*
X150805Y228445D01*
X151479D01*
X152129Y228619D01*
X152713Y228956D01*
X153190Y229433D01*
X153353Y229716D01*
X153930D01*
X154094Y229433D01*
X154570Y228956D01*
X155154Y228619D01*
X155805Y228445D01*
X156479D01*
X157130Y228619D01*
X157713Y228956D01*
X158189Y229433D01*
X158353Y229716D01*
X158930D01*
X159094Y229433D01*
X159570Y228956D01*
X160154Y228619D01*
X160805Y228445D01*
X161479D01*
X162129Y228619D01*
X162713Y228956D01*
X163189Y229433D01*
X163353Y229716D01*
X163930D01*
X164094Y229433D01*
X164570Y228956D01*
X165154Y228619D01*
X165805Y228445D01*
X166479D01*
X167130Y228619D01*
X167713Y228956D01*
X168190Y229433D01*
X168353Y229716D01*
X168930D01*
X169094Y229433D01*
X169570Y228956D01*
X170154Y228619D01*
X170805Y228445D01*
X171479D01*
X172129Y228619D01*
X172713Y228956D01*
X173189Y229433D01*
X173353Y229716D01*
X173930D01*
X174094Y229433D01*
X174570Y228956D01*
X175138Y228628D01*
Y222424D01*
X161495Y208781D01*
X161278Y208455D01*
X161201Y208071D01*
Y203077D01*
X161201Y203077D01*
X160703Y202578D01*
X160433Y201927D01*
Y201222D01*
X160703Y200571D01*
X161201Y200073D01*
X161852Y199803D01*
X162557D01*
X162786Y199898D01*
X163047Y199682D01*
X163189Y199524D01*
Y198860D01*
X163459Y198209D01*
X163957Y197711D01*
X164608Y197441D01*
X165313D01*
X165964Y197711D01*
X166463Y198209D01*
X166732Y198860D01*
Y199565D01*
X166463Y200216D01*
X165964Y200714D01*
X165964Y200714D01*
Y207754D01*
X181851Y223641D01*
X182069Y223966D01*
X182145Y224350D01*
Y228628D01*
X182713Y228956D01*
X183189Y229433D01*
X183526Y230016D01*
X183701Y230667D01*
Y231341D01*
X183526Y231992D01*
X183189Y232575D01*
X182713Y233052D01*
X182130Y233389D01*
X181479Y233563D01*
X180805D01*
X180154Y233389D01*
X179570Y233052D01*
X179094Y232575D01*
X178930Y232292D01*
X178353D01*
X178190Y232575D01*
X177713Y233052D01*
X177430Y233215D01*
Y233793D01*
X177713Y233956D01*
X178190Y234433D01*
X178526Y235016D01*
X178701Y235667D01*
Y236341D01*
X178526Y236992D01*
X178480Y237073D01*
X180653Y239246D01*
X193569D01*
X193684Y238768D01*
X192323Y238204D01*
X191098Y237385D01*
X190056Y236343D01*
X189237Y235118D01*
X188673Y233757D01*
X188386Y232312D01*
Y230838D01*
X188673Y229393D01*
X189237Y228032D01*
X190056Y226806D01*
X191098Y225764D01*
X192323Y224946D01*
X193684Y224382D01*
X195129Y224095D01*
X196603D01*
X198048Y224382D01*
X199409Y224946D01*
X200635Y225764D01*
X201677Y226806D01*
X202495Y228032D01*
X203059Y229393D01*
X203313Y230671D01*
X203813Y230622D01*
X203813Y208736D01*
X99173Y104096D01*
X99081Y104134D01*
X98376D01*
X97725Y103864D01*
X97226Y103366D01*
X96957Y102715D01*
Y102010D01*
X97226Y101359D01*
X97725Y100860D01*
X98376Y100591D01*
X99081D01*
X99732Y100860D01*
X100230Y101359D01*
X100500Y102010D01*
Y102715D01*
X100462Y102807D01*
X107975Y110320D01*
X108496Y110134D01*
X108707Y109626D01*
X109205Y109128D01*
X109713Y108918D01*
X109899Y108396D01*
X101142Y99639D01*
X100746Y99803D01*
X100041D01*
X99390Y99533D01*
X98892Y99035D01*
X98622Y98384D01*
Y97679D01*
X98892Y97028D01*
X99390Y96530D01*
X100041Y96260D01*
X100746D01*
X101397Y96530D01*
X101896Y97028D01*
X102165Y97679D01*
Y98085D01*
X123549Y119469D01*
X124070Y119283D01*
X124281Y118775D01*
X124779Y118277D01*
X125430Y118007D01*
X126135D01*
X126786Y118277D01*
X127285Y118775D01*
X127554Y119426D01*
Y120131D01*
X127516Y120224D01*
X211274Y203982D01*
X211472Y204277D01*
X211541Y204626D01*
Y237402D01*
X211472Y237750D01*
X211274Y238046D01*
X202613Y246707D01*
X202317Y246905D01*
X201969Y246974D01*
D02*
G37*
G36*
X229482Y234102D02*
X228589D01*
X227726Y233871D01*
X226952Y233424D01*
X226320Y232792D01*
X225873Y232019D01*
X225642Y231155D01*
Y230262D01*
X225873Y229399D01*
X226320Y228625D01*
X226952Y227993D01*
X227726Y227546D01*
X228589Y227315D01*
X229482D01*
X230345Y227546D01*
X231119Y227993D01*
X231751Y228625D01*
X232198Y229399D01*
X232305Y229797D01*
X247771D01*
X247809Y229705D01*
X248307Y229207D01*
X248959Y228937D01*
X249663D01*
X250315Y229207D01*
X250813Y229705D01*
X251083Y230356D01*
Y231061D01*
X250813Y231712D01*
X250315Y232211D01*
X249663Y232480D01*
X248959D01*
X248307Y232211D01*
X247809Y231712D01*
X247771Y231620D01*
X232305D01*
X232198Y232019D01*
X231751Y232792D01*
X231119Y233424D01*
X230345Y233871D01*
X229482Y234102D01*
D02*
G37*
G36*
X55855Y242992D02*
X54381D01*
X52936Y242705D01*
X51575Y242141D01*
X50350Y241322D01*
X49308Y240280D01*
X48489Y239055D01*
X47925Y237694D01*
X47638Y236249D01*
Y234775D01*
X47925Y233330D01*
X48489Y231969D01*
X49308Y230743D01*
X50350Y229701D01*
X51575Y228883D01*
X52936Y228319D01*
X54381Y228031D01*
X55855D01*
X57300Y228319D01*
X58661Y228883D01*
X59886Y229701D01*
X60928Y230743D01*
X61747Y231969D01*
X62311Y233330D01*
X62598Y234775D01*
Y236249D01*
X62311Y237694D01*
X61747Y239055D01*
X60928Y240280D01*
X59886Y241322D01*
X58661Y242141D01*
X57300Y242705D01*
X55855Y242992D01*
D02*
G37*
G36*
X240894Y136693D02*
X239421D01*
X237976Y136405D01*
X236614Y135842D01*
X235389Y135023D01*
X234347Y133981D01*
X233528Y132756D01*
X232965Y131395D01*
X232677Y129949D01*
Y128476D01*
X232965Y127031D01*
X233528Y125669D01*
X234347Y124444D01*
X235389Y123402D01*
X236614Y122584D01*
X237976Y122020D01*
X239421Y121732D01*
X240894D01*
X242339Y122020D01*
X243701Y122584D01*
X244926Y123402D01*
X245968Y124444D01*
X246786Y125669D01*
X247350Y127031D01*
X247638Y128476D01*
Y129949D01*
X247350Y131395D01*
X246786Y132756D01*
X245968Y133981D01*
X244926Y135023D01*
X243701Y135842D01*
X242339Y136405D01*
X240894Y136693D01*
D02*
G37*
G36*
X28341Y124803D02*
X27564D01*
X26813Y124602D01*
X26140Y124213D01*
X25590Y123663D01*
X25201Y122990D01*
X25000Y122239D01*
Y121462D01*
X25201Y120711D01*
X25590Y120037D01*
X26140Y119488D01*
X26813Y119099D01*
X27564Y118898D01*
X28341D01*
X29092Y119099D01*
X29766Y119488D01*
X30316Y120037D01*
X30704Y120711D01*
X30906Y121462D01*
Y122239D01*
X30704Y122990D01*
X30316Y123663D01*
X29766Y124213D01*
X29092Y124602D01*
X28341Y124803D01*
D02*
G37*
G36*
X132085Y113118D02*
X131191D01*
X130328Y112887D01*
X129554Y112440D01*
X128922Y111808D01*
X128475Y111034D01*
X128244Y110171D01*
Y109278D01*
X128475Y108414D01*
X128922Y107641D01*
X129554Y107009D01*
X130328Y106562D01*
X131191Y106331D01*
X132085D01*
X132948Y106562D01*
X133722Y107009D01*
X134353Y107641D01*
X134800Y108414D01*
X135031Y109278D01*
Y110171D01*
X134800Y111034D01*
X134353Y111808D01*
X133722Y112440D01*
X132948Y112887D01*
X132085Y113118D01*
D02*
G37*
G36*
X248386Y115405D02*
X246890D01*
X245445Y115018D01*
X244149Y114270D01*
X243092Y113213D01*
X242344Y111917D01*
X241957Y110472D01*
Y108976D01*
X242344Y107532D01*
X243092Y106236D01*
X244149Y105178D01*
X245445Y104430D01*
X246890Y104043D01*
X248386D01*
X249831Y104430D01*
X251126Y105178D01*
X252184Y106236D01*
X252932Y107532D01*
X253319Y108976D01*
Y110472D01*
X252932Y111917D01*
X252184Y113213D01*
X251126Y114270D01*
X249831Y115018D01*
X248386Y115405D01*
D02*
G37*
G36*
X132085Y103118D02*
X131191D01*
X130328Y102887D01*
X129554Y102440D01*
X128922Y101808D01*
X128475Y101034D01*
X128244Y100171D01*
Y99278D01*
X128475Y98414D01*
X128922Y97641D01*
X129554Y97009D01*
X130328Y96562D01*
X131191Y96331D01*
X132085D01*
X132948Y96562D01*
X133722Y97009D01*
X134353Y97641D01*
X134800Y98414D01*
X135031Y99278D01*
Y100171D01*
X134800Y101034D01*
X134353Y101808D01*
X133722Y102440D01*
X132948Y102887D01*
X132085Y103118D01*
D02*
G37*
G36*
X27953Y94907D02*
X27182Y94806D01*
X26464Y94508D01*
X25847Y94035D01*
X25374Y93418D01*
X25076Y92700D01*
X24974Y91929D01*
Y88779D01*
X25076Y88009D01*
X25374Y87290D01*
X25847Y86674D01*
X26464Y86200D01*
X27182Y85903D01*
X27953Y85801D01*
X28724Y85903D01*
X29442Y86200D01*
X30059Y86674D01*
X30532Y87290D01*
X30830Y88009D01*
X30931Y88779D01*
Y91929D01*
X30830Y92700D01*
X30532Y93418D01*
X30059Y94035D01*
X29442Y94508D01*
X28724Y94806D01*
X27953Y94907D01*
D02*
G37*
G36*
X132085Y83118D02*
X131191D01*
X130328Y82887D01*
X129554Y82440D01*
X128922Y81808D01*
X128475Y81034D01*
X128244Y80171D01*
Y79278D01*
X128475Y78414D01*
X128922Y77641D01*
X129554Y77009D01*
X130328Y76562D01*
X131191Y76331D01*
X132085D01*
X132948Y76562D01*
X133722Y77009D01*
X134353Y77641D01*
X134800Y78414D01*
X135031Y79278D01*
Y80171D01*
X134800Y81034D01*
X134353Y81808D01*
X133722Y82440D01*
X132948Y82887D01*
X132085Y83118D01*
D02*
G37*
G36*
Y73118D02*
X131191D01*
X130328Y72887D01*
X129554Y72440D01*
X128922Y71808D01*
X128475Y71034D01*
X128244Y70171D01*
Y69278D01*
X128475Y68414D01*
X128922Y67641D01*
X129554Y67009D01*
X130328Y66562D01*
X131191Y66331D01*
X132085D01*
X132948Y66562D01*
X133722Y67009D01*
X134353Y67641D01*
X134800Y68414D01*
X135031Y69278D01*
Y70171D01*
X134800Y71034D01*
X134353Y71808D01*
X133722Y72440D01*
X132948Y72887D01*
X132085Y73118D01*
D02*
G37*
G36*
Y63118D02*
X131191D01*
X130328Y62887D01*
X129554Y62440D01*
X128922Y61808D01*
X128475Y61034D01*
X128244Y60171D01*
Y59278D01*
X128475Y58415D01*
X128922Y57641D01*
X129554Y57009D01*
X130328Y56562D01*
X131191Y56331D01*
X132085D01*
X132948Y56562D01*
X133722Y57009D01*
X134353Y57641D01*
X134800Y58415D01*
X135031Y59278D01*
Y60171D01*
X134800Y61034D01*
X134353Y61808D01*
X133722Y62440D01*
X132948Y62887D01*
X132085Y63118D01*
D02*
G37*
G36*
Y53118D02*
X131191D01*
X130328Y52887D01*
X129554Y52440D01*
X128922Y51808D01*
X128475Y51034D01*
X128244Y50171D01*
Y49278D01*
X128475Y48414D01*
X128922Y47641D01*
X129554Y47009D01*
X130328Y46562D01*
X131191Y46331D01*
X132085D01*
X132948Y46562D01*
X133722Y47009D01*
X134353Y47641D01*
X134800Y48414D01*
X135031Y49278D01*
Y50171D01*
X134800Y51034D01*
X134353Y51808D01*
X133722Y52440D01*
X132948Y52887D01*
X132085Y53118D01*
D02*
G37*
G36*
Y43118D02*
X131191D01*
X130328Y42887D01*
X129554Y42440D01*
X128922Y41808D01*
X128475Y41034D01*
X128244Y40171D01*
Y39278D01*
X128475Y38414D01*
X128922Y37641D01*
X129554Y37009D01*
X130328Y36562D01*
X131191Y36331D01*
X132085D01*
X132948Y36562D01*
X133722Y37009D01*
X134353Y37641D01*
X134800Y38414D01*
X135031Y39278D01*
Y40171D01*
X134800Y41034D01*
X134353Y41808D01*
X133722Y42440D01*
X132948Y42887D01*
X132085Y43118D01*
D02*
G37*
G36*
X55855Y47126D02*
X54381D01*
X52936Y46839D01*
X51575Y46275D01*
X50350Y45456D01*
X49308Y44414D01*
X48489Y43189D01*
X47925Y41828D01*
X47638Y40382D01*
Y38909D01*
X47925Y37464D01*
X48489Y36102D01*
X49308Y34877D01*
X50350Y33835D01*
X51575Y33017D01*
X52936Y32453D01*
X54381Y32165D01*
X55855D01*
X57300Y32453D01*
X58661Y33017D01*
X59886Y33835D01*
X60928Y34877D01*
X61747Y36102D01*
X62311Y37464D01*
X62598Y38909D01*
Y40382D01*
X62311Y41828D01*
X61747Y43189D01*
X60928Y44414D01*
X59886Y45456D01*
X58661Y46275D01*
X57300Y46839D01*
X55855Y47126D01*
D02*
G37*
G36*
X132085Y33118D02*
X131191D01*
X130328Y32887D01*
X129554Y32440D01*
X128922Y31808D01*
X128475Y31034D01*
X128244Y30171D01*
Y29278D01*
X128475Y28414D01*
X128922Y27641D01*
X129554Y27009D01*
X130328Y26562D01*
X131191Y26331D01*
X132085D01*
X132948Y26562D01*
X133722Y27009D01*
X134353Y27641D01*
X134800Y28414D01*
X135031Y29278D01*
Y30171D01*
X134800Y31034D01*
X134353Y31808D01*
X133722Y32440D01*
X132948Y32887D01*
X132085Y33118D01*
D02*
G37*
G36*
X248386Y35405D02*
X246890D01*
X245445Y35018D01*
X244149Y34270D01*
X243092Y33213D01*
X242344Y31917D01*
X241957Y30472D01*
Y28977D01*
X242344Y27532D01*
X243092Y26236D01*
X244149Y25178D01*
X245445Y24430D01*
X246890Y24043D01*
X248386D01*
X249831Y24430D01*
X251126Y25178D01*
X252184Y26236D01*
X252932Y27532D01*
X253319Y28977D01*
Y30472D01*
X252932Y31917D01*
X252184Y33213D01*
X251126Y34270D01*
X249831Y35018D01*
X248386Y35405D01*
D02*
G37*
G36*
X28306Y34843D02*
X26813D01*
X25348Y34551D01*
X23969Y33980D01*
X22728Y33151D01*
X21672Y32095D01*
X20843Y30854D01*
X20272Y29474D01*
X19980Y28010D01*
Y26517D01*
X20272Y25053D01*
X20843Y23674D01*
X21672Y22433D01*
X22728Y21377D01*
X23969Y20548D01*
X25348Y19976D01*
X26813Y19685D01*
X28306D01*
X29770Y19976D01*
X31149Y20548D01*
X32390Y21377D01*
X33446Y22433D01*
X34275Y23674D01*
X34846Y25053D01*
X35138Y26517D01*
Y28010D01*
X34846Y29474D01*
X34275Y30854D01*
X33446Y32095D01*
X32390Y33151D01*
X31149Y33980D01*
X29770Y34551D01*
X28306Y34843D01*
D02*
G37*
G36*
X273876Y34744D02*
X272383D01*
X270919Y34453D01*
X269540Y33882D01*
X268299Y33052D01*
X267243Y31997D01*
X266414Y30755D01*
X265842Y29376D01*
X265551Y27912D01*
Y26419D01*
X265842Y24955D01*
X266414Y23575D01*
X267243Y22334D01*
X268299Y21279D01*
X269540Y20449D01*
X270919Y19878D01*
X272383Y19587D01*
X273876D01*
X275341Y19878D01*
X276720Y20449D01*
X277961Y21279D01*
X279017Y22334D01*
X279846Y23575D01*
X280417Y24955D01*
X280709Y26419D01*
Y27912D01*
X280417Y29376D01*
X279846Y30755D01*
X279017Y31997D01*
X277961Y33052D01*
X276720Y33882D01*
X275341Y34453D01*
X273876Y34744D01*
D02*
G37*
%LPD*%
D11*
X96759Y241070D02*
G03*
X92717Y236357I32895J-32312D01*
G01*
X95270Y241534D02*
G03*
X93534Y239611I34385J-32777D01*
G01*
X92717Y236357D02*
G03*
X92520Y235766I803J-596D01*
G01*
X204724Y234084D02*
G03*
X201136Y238234I-30378J-22640D01*
G01*
X90689Y236179D02*
X90880Y236504D01*
X109048Y191504D02*
X164586D01*
X90551Y210000D02*
Y235672D01*
Y210000D02*
X109048Y191504D01*
X90551Y235672D02*
X90551Y235945D01*
X90689Y236179D01*
X124396Y242750D02*
X131142Y236004D01*
X124367Y242756D02*
X124396Y242750D01*
X95774Y242055D02*
X96182Y242463D01*
X96475Y242756D02*
X124367D01*
X96182Y242463D02*
X96475Y242756D01*
X92520Y210860D02*
Y235766D01*
X95604Y241885D02*
X95774Y242055D01*
X90880Y236504D02*
X93534Y239611D01*
X121076Y241070D02*
X126142Y236004D01*
X96759Y241070D02*
X97052Y241362D01*
X120783D02*
X121076Y241070D01*
X95270Y241534D02*
X95604Y241885D01*
X97052Y241362D02*
X120783D01*
X92520Y210860D02*
X92813Y210567D01*
X109876Y193504D01*
X180276Y240158D02*
X199213D01*
X199213D02*
X201136Y238234D01*
X176142Y236024D02*
X180276Y240158D01*
X204724Y234084D02*
X204724Y208358D01*
X98728Y102362D02*
X204724Y208358D01*
X200000Y242126D02*
X206693Y235433D01*
Y207114D02*
Y235433D01*
X177244Y242126D02*
X200000D01*
X201181Y244094D02*
X208661Y236614D01*
Y205870D02*
Y236614D01*
X174213Y244094D02*
X201181D01*
X201969Y246063D02*
X210630Y237402D01*
Y204626D02*
Y237402D01*
X171181Y246063D02*
X201969D01*
X171142Y236024D02*
X177244Y242126D01*
X166142Y236024D02*
X174213Y244094D01*
X161142Y236024D02*
X171181Y246063D01*
X110209Y110630D02*
X206693Y207114D01*
X151216Y148425D02*
X208661Y205870D01*
X125783Y119779D02*
X210630Y204626D01*
X100394Y98032D02*
X100762D01*
X101443Y98713D01*
X101504D02*
X151216Y148425D01*
X151216D01*
X101443Y98713D02*
X101504D01*
X229232Y230709D02*
X249311D01*
X229035Y230512D02*
X229232Y230709D01*
X166831Y271161D02*
X166929Y271260D01*
X164586Y191504D02*
X168585Y187505D01*
X109876Y193504D02*
X168701D01*
D44*
X229035Y230709D02*
D03*
X131638Y109724D02*
D03*
Y99724D02*
D03*
Y89724D02*
D03*
Y79724D02*
D03*
Y69724D02*
D03*
Y59724D02*
D03*
Y49724D02*
D03*
Y39724D02*
D03*
Y29724D02*
D03*
D47*
X135886Y271260D02*
X166929D01*
X128504Y278642D02*
X135886Y271260D01*
D48*
X162205Y208071D02*
X176142Y222008D01*
X162205Y201617D02*
Y208071D01*
X164961Y199213D02*
Y208169D01*
X181142Y224350D01*
X176142Y222008D02*
Y231004D01*
X181142Y224350D02*
Y231004D01*
D51*
X27953Y90354D02*
D03*
D52*
Y121850D02*
D03*
D53*
X108504Y262894D02*
D03*
X118504D02*
D03*
X108504Y278642D02*
D03*
X118504D02*
D03*
D54*
X128504Y262894D02*
D03*
Y278642D02*
D03*
D55*
X181142Y231004D02*
D03*
Y236004D02*
D03*
X176142D02*
D03*
Y231004D02*
D03*
X171142D02*
D03*
Y236004D02*
D03*
X166142D02*
D03*
Y231004D02*
D03*
X161142D02*
D03*
Y236004D02*
D03*
X156142D02*
D03*
Y231004D02*
D03*
X151142D02*
D03*
Y236004D02*
D03*
X146142D02*
D03*
Y231004D02*
D03*
X141142D02*
D03*
Y236004D02*
D03*
X136142D02*
D03*
Y231004D02*
D03*
X131142D02*
D03*
Y236004D02*
D03*
X126142D02*
D03*
Y231004D02*
D03*
X121142D02*
D03*
Y236004D02*
D03*
X116142D02*
D03*
Y231004D02*
D03*
D56*
X110209Y110630D02*
D03*
X98728Y102362D02*
D03*
X100394Y98032D02*
D03*
X125783Y119779D02*
D03*
X162205Y201575D02*
D03*
X164961Y199213D02*
D03*
X249311Y230709D02*
D03*
X168701Y193504D02*
D03*
X153937Y251870D02*
D03*
X245472Y219488D02*
D03*
X168585Y187505D02*
D03*
X181299Y255217D02*
D03*
X166929Y271260D02*
D03*
D57*
X95774Y242055D02*
D03*
D58*
X219535Y221209D02*
D03*
X238535D02*
D03*
X219535Y240209D02*
D03*
X238535D02*
D03*
M02*
