G04*
G04 #@! TF.GenerationSoftware,Altium Limited,Altium Designer,23.10.1 (27)*
G04*
G04 Layer_Color=8388736*
%FSLAX25Y25*%
%MOIN*%
G70*
G04*
G04 #@! TF.SameCoordinates,0F76161B-FDE3-46C5-8999-B479EBFB7D10*
G04*
G04*
G04 #@! TF.FilePolarity,Negative*
G04*
G01*
G75*
%ADD28R,0.03950X0.06706*%
%ADD29R,0.06706X0.03950*%
%ADD30R,0.11036X0.06312*%
%ADD31R,0.08280X0.03556*%
%ADD32R,0.07887X0.07493*%
%ADD33R,0.03359X0.04343*%
%ADD34R,0.04343X0.03359*%
%ADD35R,0.03556X0.06804*%
%ADD36R,0.03950X0.03556*%
%ADD37R,0.10642X0.04343*%
%ADD38R,0.03950X0.03950*%
%ADD39R,0.05524X0.07690*%
%ADD40O,0.04343X0.07493*%
%ADD41C,0.04343*%
%ADD42C,0.07099*%
G04:AMPARAMS|DCode=43|XSize=70.99mil|YSize=70.99mil|CornerRadius=19.75mil|HoleSize=0mil|Usage=FLASHONLY|Rotation=180.000|XOffset=0mil|YOffset=0mil|HoleType=Round|Shape=RoundedRectangle|*
%AMROUNDEDRECTD43*
21,1,0.07099,0.03150,0,0,180.0*
21,1,0.03150,0.07099,0,0,180.0*
1,1,0.03950,-0.01575,0.01575*
1,1,0.03950,0.01575,0.01575*
1,1,0.03950,0.01575,-0.01575*
1,1,0.03950,-0.01575,-0.01575*
%
%ADD43ROUNDEDRECTD43*%
%ADD44C,0.06000*%
%ADD45C,0.04737*%
%ADD46C,0.00800*%
D28*
X224409Y140157D02*
D03*
X218504D02*
D03*
X212598D02*
D03*
X206693D02*
D03*
X200787D02*
D03*
X194882D02*
D03*
X236220D02*
D03*
X248031D02*
D03*
X242126D02*
D03*
X188976D02*
D03*
X230315D02*
D03*
X253937D02*
D03*
X206693Y212992D02*
D03*
X200787D02*
D03*
X194882D02*
D03*
X188976D02*
D03*
X259842D02*
D03*
X253937D02*
D03*
X248031D02*
D03*
X242126D02*
D03*
X212598D02*
D03*
X236221D02*
D03*
X230315D02*
D03*
X224410D02*
D03*
X218504D02*
D03*
D29*
X176575Y176575D02*
D03*
Y170669D02*
D03*
Y164764D02*
D03*
Y158858D02*
D03*
Y152953D02*
D03*
Y182480D02*
D03*
Y188386D02*
D03*
Y194291D02*
D03*
Y200197D02*
D03*
D30*
X29528Y71457D02*
D03*
Y133268D02*
D03*
D31*
X71457Y93504D02*
D03*
Y97835D02*
D03*
Y102165D02*
D03*
Y106496D02*
D03*
Y110827D02*
D03*
Y115157D02*
D03*
Y119488D02*
D03*
Y123819D02*
D03*
Y128150D02*
D03*
D32*
X67323Y73228D02*
D03*
Y134252D02*
D03*
D33*
X230413Y225000D02*
D03*
X224705D02*
D03*
X178839Y261319D02*
D03*
X173130D02*
D03*
X178839Y270768D02*
D03*
X173130D02*
D03*
X178839Y280118D02*
D03*
X173130D02*
D03*
D34*
X236713Y224410D02*
D03*
Y230118D02*
D03*
X230413Y240748D02*
D03*
Y235039D02*
D03*
X244094Y240551D02*
D03*
Y234842D02*
D03*
X140453Y276870D02*
D03*
Y282579D02*
D03*
D35*
X228622Y269437D02*
D03*
X233622D02*
D03*
X238622D02*
D03*
X243622D02*
D03*
Y248083D02*
D03*
X238622D02*
D03*
X233622D02*
D03*
X228622D02*
D03*
D36*
X253740Y219488D02*
D03*
Y226181D02*
D03*
D37*
X152953Y124119D02*
D03*
Y111914D02*
D03*
X166732Y124119D02*
D03*
Y111914D02*
D03*
D38*
X190945Y261319D02*
D03*
X184646D02*
D03*
X190945Y270768D02*
D03*
X184646D02*
D03*
X190945Y280118D02*
D03*
X184646D02*
D03*
D39*
X86811Y257677D02*
D03*
Y282283D02*
D03*
X154528Y282776D02*
D03*
Y258169D02*
D03*
D40*
X27953Y90354D02*
D03*
D41*
Y121850D02*
D03*
D42*
X108504Y262894D02*
D03*
X118504D02*
D03*
X108504Y278642D02*
D03*
X118504D02*
D03*
D43*
X128504Y262894D02*
D03*
Y278642D02*
D03*
D44*
X131638Y109724D02*
D03*
Y99724D02*
D03*
Y89724D02*
D03*
Y79724D02*
D03*
Y69724D02*
D03*
Y59724D02*
D03*
Y49724D02*
D03*
Y39724D02*
D03*
Y29724D02*
D03*
D45*
X181142Y231004D02*
D03*
Y236004D02*
D03*
X176142D02*
D03*
Y231004D02*
D03*
X171142D02*
D03*
Y236004D02*
D03*
X166142D02*
D03*
Y231004D02*
D03*
X161142D02*
D03*
Y236004D02*
D03*
X156142D02*
D03*
Y231004D02*
D03*
X151142D02*
D03*
Y236004D02*
D03*
X146142D02*
D03*
Y231004D02*
D03*
X141142D02*
D03*
Y236004D02*
D03*
X136142D02*
D03*
Y231004D02*
D03*
X131142D02*
D03*
Y236004D02*
D03*
X126142D02*
D03*
Y231004D02*
D03*
X121142D02*
D03*
Y236004D02*
D03*
X116142D02*
D03*
Y231004D02*
D03*
D46*
X195866Y231575D02*
D03*
X101378D02*
D03*
X55118Y235512D02*
D03*
Y39646D02*
D03*
X240158Y129213D02*
D03*
M02*
