M48
;Layer_Color=9474304
;FILE_FORMAT=2:5
INCH,TZ
;TYPE=PLATED
T01F00S00C0.01181
T02F00S00C0.02756
T03F00S00C0.03937
T04F00S00C0.04331
T05F00S00C0.09000
T06F00S00C0.12598
T07F00S00C0.12795
;TYPE=NON_PLATED
T08F00S00C0.03543
%
T01
X100394Y98032
X98728Y102362
X110209Y110630
X125783Y119779
X168585Y187505
X168701Y193504
X164961Y199213
X162205Y201575
X181299Y255217
X166929Y271260
X249311Y230709
X245472Y219488
X153937Y251870
T02
X161142Y231004
X166142
X171142
X176142
X181142
Y236004
X176142
X171142
X166142
X161142
X156142
Y231004
X151142
Y236004
X146142
Y231004
X141142
Y236004
X136142
Y231004
X131142
Y236004
X126142
Y231004
X121142
Y236004
X116142
Y231004
T03
X131638Y29724
Y39724
Y49724
Y59724
Y69724
Y79724
Y89724
Y99724
Y109724
T04
X108504Y262894
X118504
X128504
Y278642
X118504
X108504
T05
X247638Y29724
Y109724
T06
X55118Y39646
X240158Y129213
X195866Y231575
X101378
X55118Y235512
T07
X27559Y27264
X273130Y27165
X273228Y281398
X27559
T08
X27953Y121850
M30
