G04*
G04 #@! TF.GenerationSoftware,Altium Limited,Altium Designer,23.10.1 (27)*
G04*
G04 Layer_Color=255*
%FSLAX25Y25*%
%MOIN*%
G70*
G04*
G04 #@! TF.SameCoordinates,0F76161B-FDE3-46C5-8999-B479EBFB7D10*
G04*
G04*
G04 #@! TF.FilePolarity,Positive*
G04*
G01*
G75*
%ADD16R,0.03150X0.05906*%
%ADD17R,0.05906X0.03150*%
%ADD18R,0.10236X0.05512*%
%ADD19R,0.07480X0.02756*%
%ADD20R,0.07087X0.06693*%
%ADD21R,0.02559X0.03543*%
%ADD22R,0.03543X0.02559*%
%ADD23R,0.02756X0.06004*%
%ADD24R,0.03150X0.02756*%
%ADD25R,0.09843X0.03543*%
%ADD26R,0.03150X0.03150*%
%ADD27R,0.04724X0.06890*%
%ADD44C,0.06000*%
%ADD51O,0.03543X0.06693*%
%ADD52C,0.03543*%
%ADD53C,0.06299*%
G04:AMPARAMS|DCode=54|XSize=62.99mil|YSize=62.99mil|CornerRadius=15.75mil|HoleSize=0mil|Usage=FLASHONLY|Rotation=180.000|XOffset=0mil|YOffset=0mil|HoleType=Round|Shape=RoundedRectangle|*
%AMROUNDEDRECTD54*
21,1,0.06299,0.03150,0,0,180.0*
21,1,0.03150,0.06299,0,0,180.0*
1,1,0.03150,-0.01575,0.01575*
1,1,0.03150,0.01575,0.01575*
1,1,0.03150,0.01575,-0.01575*
1,1,0.03150,-0.01575,-0.01575*
%
%ADD54ROUNDEDRECTD54*%
%ADD55C,0.03937*%
D16*
X224409Y140157D02*
D03*
X218504D02*
D03*
X212598D02*
D03*
X206693D02*
D03*
X200787D02*
D03*
X194882D02*
D03*
X236220D02*
D03*
X248031D02*
D03*
X242126D02*
D03*
X188976D02*
D03*
X230315D02*
D03*
X253937D02*
D03*
X206693Y212992D02*
D03*
X200787D02*
D03*
X194882D02*
D03*
X188976D02*
D03*
X259842D02*
D03*
X253937D02*
D03*
X248031D02*
D03*
X242126D02*
D03*
X212598D02*
D03*
X236221D02*
D03*
X230315D02*
D03*
X224410D02*
D03*
X218504D02*
D03*
D17*
X176575Y176575D02*
D03*
Y170669D02*
D03*
Y164764D02*
D03*
Y158858D02*
D03*
Y152953D02*
D03*
Y182480D02*
D03*
Y188386D02*
D03*
Y194291D02*
D03*
Y200197D02*
D03*
D18*
X29528Y71457D02*
D03*
Y133268D02*
D03*
D19*
X71457Y93504D02*
D03*
Y97835D02*
D03*
Y102165D02*
D03*
Y106496D02*
D03*
Y110827D02*
D03*
Y115157D02*
D03*
Y119488D02*
D03*
Y123819D02*
D03*
Y128150D02*
D03*
D20*
X67323Y73228D02*
D03*
Y134252D02*
D03*
D21*
X230413Y225000D02*
D03*
X224705D02*
D03*
X178839Y261319D02*
D03*
X173130D02*
D03*
X178839Y270768D02*
D03*
X173130D02*
D03*
X178839Y280118D02*
D03*
X173130D02*
D03*
D22*
X236713Y224410D02*
D03*
Y230118D02*
D03*
X230413Y240748D02*
D03*
Y235039D02*
D03*
X244094Y240551D02*
D03*
Y234842D02*
D03*
X140453Y276870D02*
D03*
Y282579D02*
D03*
D23*
X228622Y269437D02*
D03*
X233622D02*
D03*
X238622D02*
D03*
X243622D02*
D03*
Y248083D02*
D03*
X238622D02*
D03*
X233622D02*
D03*
X228622D02*
D03*
D24*
X253740Y219488D02*
D03*
Y226181D02*
D03*
D25*
X152953Y124119D02*
D03*
Y111914D02*
D03*
X166732Y124119D02*
D03*
Y111914D02*
D03*
D26*
X190945Y261319D02*
D03*
X184646D02*
D03*
X190945Y270768D02*
D03*
X184646D02*
D03*
X190945Y280118D02*
D03*
X184646D02*
D03*
D27*
X86811Y257677D02*
D03*
Y282283D02*
D03*
X154528Y282776D02*
D03*
Y258169D02*
D03*
D44*
X131638Y109724D02*
D03*
Y99724D02*
D03*
Y89724D02*
D03*
Y79724D02*
D03*
Y69724D02*
D03*
Y59724D02*
D03*
Y49724D02*
D03*
Y39724D02*
D03*
Y29724D02*
D03*
D51*
X27953Y90354D02*
D03*
D52*
Y121850D02*
D03*
D53*
X108504Y262894D02*
D03*
X118504D02*
D03*
X108504Y278642D02*
D03*
X118504D02*
D03*
D54*
X128504Y262894D02*
D03*
Y278642D02*
D03*
D55*
X181142Y231004D02*
D03*
Y236004D02*
D03*
X176142D02*
D03*
Y231004D02*
D03*
X171142D02*
D03*
Y236004D02*
D03*
X166142D02*
D03*
Y231004D02*
D03*
X161142D02*
D03*
Y236004D02*
D03*
X156142D02*
D03*
Y231004D02*
D03*
X151142D02*
D03*
Y236004D02*
D03*
X146142D02*
D03*
Y231004D02*
D03*
X141142D02*
D03*
Y236004D02*
D03*
X136142D02*
D03*
Y231004D02*
D03*
X131142D02*
D03*
Y236004D02*
D03*
X126142D02*
D03*
Y231004D02*
D03*
X121142D02*
D03*
Y236004D02*
D03*
X116142D02*
D03*
Y231004D02*
D03*
M02*
