G04*
G04 #@! TF.GenerationSoftware,Altium Limited,Altium Designer,23.10.1 (27)*
G04*
G04 Layer_Color=65535*
%FSLAX25Y25*%
%MOIN*%
G70*
G04*
G04 #@! TF.SameCoordinates,0F76161B-FDE3-46C5-8999-B479EBFB7D10*
G04*
G04*
G04 #@! TF.FilePolarity,Positive*
G04*
G01*
G75*
%ADD10C,0.00984*%
%ADD11C,0.01000*%
%ADD12C,0.00787*%
%ADD13C,0.00200*%
%ADD14C,0.00492*%
%ADD15R,0.00591X0.03150*%
D10*
X136358Y262894D02*
G03*
X136358Y262894I-492J0D01*
G01*
Y278642D02*
G03*
X136358Y278642I-492J0D01*
G01*
D11*
X259842Y87992D02*
Y208760D01*
Y217224D02*
Y265158D01*
X283858D01*
X172638Y136221D02*
Y216929D01*
X259842Y87992D02*
X333071Y87992D01*
Y215945D02*
X333071Y87992D01*
X333071Y215945D02*
Y265158D01*
X283858D02*
X333071D01*
X283858Y210236D02*
Y216929D01*
X172638D02*
X283858D01*
Y159055D02*
Y210236D01*
Y136221D02*
Y159055D01*
X172638Y136221D02*
X283858D01*
X227559Y223500D02*
Y226500D01*
X235213Y227264D02*
X238213D01*
X228913Y237894D02*
X231913D01*
X242595Y237697D02*
X245595D01*
X47047Y266831D02*
X73917D01*
X63507Y255120D02*
X63594Y283169D01*
X46949Y273130D02*
X73819D01*
X138953Y279724D02*
X141953D01*
X175984Y259819D02*
Y262819D01*
X175984Y269268D02*
Y272268D01*
X175984Y278618D02*
Y281618D01*
X47047Y260630D02*
X73917D01*
X309268Y213370D02*
X315266D01*
X309268Y209371D01*
X315266D01*
X309268Y206372D02*
Y204373D01*
X310267Y203373D01*
X312267D01*
X313266Y204373D01*
Y206372D01*
X312267Y207372D01*
X310267D01*
X309268Y206372D01*
Y195376D02*
X315266D01*
X313266Y193377D01*
X315266Y191377D01*
X309268D01*
Y186379D02*
Y188378D01*
X310267Y189378D01*
X312267D01*
X313266Y188378D01*
Y186379D01*
X312267Y185379D01*
X311267D01*
Y189378D01*
X314266Y182380D02*
X313266D01*
Y183380D01*
Y181380D01*
Y182380D01*
X310267D01*
X309268Y181380D01*
X313266Y177382D02*
Y175382D01*
X312267Y174383D01*
X309268D01*
Y177382D01*
X310267Y178381D01*
X311267Y177382D01*
Y174383D01*
X309268Y172383D02*
Y170384D01*
Y171384D01*
X315266D01*
Y172383D01*
Y161387D02*
Y157388D01*
X314266D01*
X310267Y161387D01*
X309268D01*
Y157388D01*
Y154389D02*
Y152390D01*
X310267Y151390D01*
X312267D01*
X313266Y152390D01*
Y154389D01*
X312267Y155389D01*
X310267D01*
X309268Y154389D01*
Y149391D02*
X313266D01*
Y146392D01*
X312267Y145392D01*
X309268D01*
Y140394D02*
Y142393D01*
X310267Y143393D01*
X312267D01*
X313266Y142393D01*
Y140394D01*
X312267Y139394D01*
X311267D01*
Y143393D01*
X277254Y95488D02*
Y99487D01*
X278254D01*
X282252Y95488D01*
X283252D01*
Y99487D01*
Y102486D02*
Y104485D01*
X282252Y105485D01*
X280253D01*
X279253Y104485D01*
Y102486D01*
X280253Y101486D01*
X282252D01*
X283252Y102486D01*
Y107484D02*
X279253D01*
Y110483D01*
X280253Y111483D01*
X283252D01*
Y116481D02*
Y114482D01*
X282252Y113482D01*
X280253D01*
X279253Y114482D01*
Y116481D01*
X280253Y117481D01*
X281253D01*
Y113482D01*
X268291Y95488D02*
X262293D01*
X268291Y99487D01*
X262293D01*
X268291Y102486D02*
Y104485D01*
X267292Y105485D01*
X265292D01*
X264293Y104485D01*
Y102486D01*
X265292Y101486D01*
X267292D01*
X268291Y102486D01*
X275772Y95488D02*
X269774D01*
X271773Y97487D01*
X269774Y99487D01*
X275772D01*
Y104485D02*
Y102486D01*
X274772Y101486D01*
X272773D01*
X271773Y102486D01*
Y104485D01*
X272773Y105485D01*
X273772D01*
Y101486D01*
X270773Y108484D02*
X271773D01*
Y107484D01*
Y109484D01*
Y108484D01*
X274772D01*
X275772Y109484D01*
X271773Y113482D02*
Y115482D01*
X272773Y116481D01*
X275772D01*
Y113482D01*
X274772Y112483D01*
X273772Y113482D01*
Y116481D01*
X275772Y118481D02*
Y120480D01*
Y119480D01*
X269774D01*
Y118481D01*
D12*
X69488Y77953D02*
Y90748D01*
X36024Y73425D02*
X62402D01*
X12402D02*
X23031D01*
X36024Y131299D02*
X62402D01*
X15157D02*
X23031D01*
X15157Y95866D02*
Y131299D01*
X12402Y73425D02*
Y85236D01*
X12408Y85236D02*
X15157Y95866D01*
X225866Y245079D02*
Y251083D01*
X226476Y252461D02*
X245768D01*
Y265059D01*
X226476D02*
X245768D01*
X226476Y252461D02*
Y265059D01*
X102913Y268189D02*
X134095D01*
Y257598D02*
Y268189D01*
X102913Y257598D02*
X134095D01*
X102913D02*
Y268189D01*
Y283937D02*
X134095D01*
Y273346D02*
Y283937D01*
X102913Y273346D02*
X134095D01*
X102913D02*
Y283937D01*
X147441Y114867D02*
Y121166D01*
X158465Y114867D02*
Y121166D01*
X161221Y114867D02*
Y121166D01*
X172244Y114867D02*
Y121166D01*
X78740Y282185D02*
X83071D01*
X78740Y257776D02*
X83071D01*
X90551D02*
X94882D01*
X90551Y282185D02*
X94882D01*
X78740Y257776D02*
Y282185D01*
X94882Y257776D02*
Y282185D01*
X162598Y258268D02*
Y282677D01*
X146457Y258268D02*
Y282677D01*
X158268D02*
X162598D01*
X158268Y258268D02*
X162598D01*
X146457D02*
X150787D01*
X146457Y282677D02*
X150787D01*
D13*
X148779Y240571D02*
X184606D01*
Y226398D02*
Y240571D01*
X112559Y226398D02*
X184606D01*
X112559D02*
Y240571D01*
X146417D02*
X148779D01*
X112559D02*
X146417D01*
D14*
X70866Y268602D02*
X71916D01*
X71391D01*
Y271751D01*
X70866Y271226D01*
X70276Y264828D02*
X70800Y265353D01*
X71850D01*
X72375Y264828D01*
Y262730D01*
X71850Y262205D01*
X70800D01*
X70276Y262730D01*
Y264828D01*
X50886Y277165D02*
Y280314D01*
X51935Y279264D01*
X52985Y280314D01*
Y277165D01*
X54559D02*
X55609D01*
X56134Y277690D01*
Y278740D01*
X55609Y279264D01*
X54559D01*
X54034Y278740D01*
Y277690D01*
X54559Y277165D01*
X59282Y280314D02*
Y277165D01*
X57708D01*
X57183Y277690D01*
Y278740D01*
X57708Y279264D01*
X59282D01*
X61906Y277165D02*
X60856D01*
X60332Y277690D01*
Y278740D01*
X60856Y279264D01*
X61906D01*
X62431Y278740D01*
Y278215D01*
X60332D01*
X66437Y268602D02*
X67487D01*
X66962D01*
Y271751D01*
X66437Y271226D01*
X128051Y269193D02*
X129101D01*
X128576D01*
Y272341D01*
X128051Y271817D01*
X107382Y271718D02*
X107907Y272243D01*
X108956D01*
X109481Y271718D01*
Y269619D01*
X108956Y269094D01*
X107907D01*
X107382Y269619D01*
Y271718D01*
X47638Y271849D02*
X49737D01*
X48687D01*
Y268701D01*
X50786Y270800D02*
Y268701D01*
Y269750D01*
X51311Y270275D01*
X51836Y270800D01*
X52361D01*
X54460D02*
X55509D01*
X56034Y270275D01*
Y268701D01*
X54460D01*
X53935Y269226D01*
X54460Y269750D01*
X56034D01*
X57084Y268701D02*
Y270800D01*
X58658D01*
X59183Y270275D01*
Y268701D01*
X60232D02*
X61806D01*
X62331Y269226D01*
X61806Y269750D01*
X60757D01*
X60232Y270275D01*
X60757Y270800D01*
X62331D01*
X180250Y243418D02*
X179725Y242893D01*
Y241844D01*
X180250Y241319D01*
X182349D01*
X182874Y241844D01*
Y242893D01*
X182349Y243418D01*
X181300D01*
Y242368D01*
X182874Y244467D02*
X179725D01*
X182874Y246567D01*
X179725D01*
Y247616D02*
X182874D01*
Y249190D01*
X182349Y249715D01*
X180250D01*
X179725Y249190D01*
Y247616D01*
X174725Y241319D02*
Y242368D01*
Y241844D01*
X177874D01*
Y241319D01*
Y242368D01*
X174725Y245517D02*
Y244467D01*
X175250Y243943D01*
X177349D01*
X177874Y244467D01*
Y245517D01*
X177349Y246042D01*
X175250D01*
X174725Y245517D01*
X177874Y247091D02*
Y248141D01*
Y247616D01*
X174725D01*
X175250Y247091D01*
X169725Y241319D02*
Y242368D01*
Y241844D01*
X172874D01*
Y241319D01*
Y242368D01*
X169725Y245517D02*
Y244467D01*
X170250Y243943D01*
X172349D01*
X172874Y244467D01*
Y245517D01*
X172349Y246042D01*
X170250D01*
X169725Y245517D01*
X170250Y247091D02*
X169725Y247616D01*
Y248666D01*
X170250Y249190D01*
X170775D01*
X171300Y248666D01*
Y248141D01*
Y248666D01*
X171825Y249190D01*
X172349D01*
X172874Y248666D01*
Y247616D01*
X172349Y247091D01*
X164725Y241319D02*
Y242368D01*
Y241844D01*
X167874D01*
Y241319D01*
Y242368D01*
X164725Y245517D02*
Y244467D01*
X165250Y243943D01*
X167349D01*
X167874Y244467D01*
Y245517D01*
X167349Y246042D01*
X165250D01*
X164725Y245517D01*
Y249190D02*
Y247091D01*
X166300D01*
X165775Y248141D01*
Y248666D01*
X166300Y249190D01*
X167349D01*
X167874Y248666D01*
Y247616D01*
X167349Y247091D01*
X159725Y241319D02*
Y242368D01*
Y241844D01*
X162874D01*
Y241319D01*
Y242368D01*
X159725Y245517D02*
Y244467D01*
X160250Y243943D01*
X162349D01*
X162874Y244467D01*
Y245517D01*
X162349Y246042D01*
X160250D01*
X159725Y245517D01*
Y247091D02*
Y249190D01*
X160250D01*
X162349Y247091D01*
X162874D01*
X155250Y243418D02*
X154725Y242893D01*
Y241844D01*
X155250Y241319D01*
X157349D01*
X157874Y241844D01*
Y242893D01*
X157349Y243418D01*
X156300D01*
Y242368D01*
X157874Y244467D02*
X154725D01*
X157874Y246567D01*
X154725D01*
Y247616D02*
X157874D01*
Y249190D01*
X157349Y249715D01*
X155250D01*
X154725Y249190D01*
Y247616D01*
X152874Y241319D02*
X149725D01*
X152874Y243418D01*
X149725D01*
X150250Y246567D02*
X149725Y246042D01*
Y244992D01*
X150250Y244467D01*
X152349D01*
X152874Y244992D01*
Y246042D01*
X152349Y246567D01*
X152874Y247616D02*
Y248666D01*
Y248141D01*
X149725D01*
X150250Y247616D01*
X144725Y243418D02*
Y241319D01*
X146300D01*
X145775Y242368D01*
Y242893D01*
X146300Y243418D01*
X147349D01*
X147874Y242893D01*
Y241844D01*
X147349Y241319D01*
X144725Y244467D02*
X146825D01*
X147874Y245517D01*
X146825Y246567D01*
X144725D01*
X142874Y241319D02*
X139725D01*
X142874Y243418D01*
X139725D01*
X140250Y246567D02*
X139725Y246042D01*
Y244992D01*
X140250Y244467D01*
X142349D01*
X142874Y244992D01*
Y246042D01*
X142349Y246567D01*
X140250Y247616D02*
X139725Y248141D01*
Y249190D01*
X140250Y249715D01*
X140775D01*
X141300Y249190D01*
Y248666D01*
Y249190D01*
X141824Y249715D01*
X142349D01*
X142874Y249190D01*
Y248141D01*
X142349Y247616D01*
X137874Y241319D02*
X134725D01*
X137874Y243418D01*
X134725D01*
X135250Y246567D02*
X134725Y246042D01*
Y244992D01*
X135250Y244467D01*
X137349D01*
X137874Y244992D01*
Y246042D01*
X137349Y246567D01*
X137874Y249190D02*
X134725D01*
X136300Y247616D01*
Y249715D01*
X129725Y241319D02*
Y242368D01*
Y241844D01*
X132874D01*
Y241319D01*
Y242368D01*
X129725Y245517D02*
Y244467D01*
X130250Y243943D01*
X132349D01*
X132874Y244467D01*
Y245517D01*
X132349Y246042D01*
X130250D01*
X129725Y245517D01*
X132349Y247091D02*
X132874Y247616D01*
Y248666D01*
X132349Y249190D01*
X130250D01*
X129725Y248666D01*
Y247616D01*
X130250Y247091D01*
X130775D01*
X131300Y247616D01*
Y249190D01*
X124725Y241319D02*
Y242368D01*
Y241844D01*
X127874D01*
Y241319D01*
Y242368D01*
X124725Y245517D02*
Y244467D01*
X125250Y243943D01*
X127349D01*
X127874Y244467D01*
Y245517D01*
X127349Y246042D01*
X125250D01*
X124725Y245517D01*
X127874Y247091D02*
Y248141D01*
Y247616D01*
X124725D01*
X125250Y247091D01*
X127874Y249715D02*
Y250765D01*
Y250240D01*
X124725D01*
X125250Y249715D01*
X122874Y241319D02*
Y242368D01*
Y241844D01*
X119725D01*
X120250Y241319D01*
X122874Y246042D02*
Y243943D01*
X120775Y246042D01*
X120250D01*
X119725Y245517D01*
Y244467D01*
X120250Y243943D01*
X119725Y247091D02*
X121825D01*
X122874Y248141D01*
X121825Y249190D01*
X119725D01*
X114725Y241319D02*
Y242368D01*
Y241844D01*
X117874D01*
Y241319D01*
Y242368D01*
X114725Y245517D02*
Y244467D01*
X115250Y243943D01*
X117349D01*
X117874Y244467D01*
Y245517D01*
X117349Y246042D01*
X115250D01*
X114725Y245517D01*
X117874Y247091D02*
Y248141D01*
Y247616D01*
X114725D01*
X115250Y247091D01*
Y249715D02*
X114725Y250240D01*
Y251289D01*
X115250Y251814D01*
X115775D01*
X116300Y251289D01*
Y250765D01*
Y251289D01*
X116824Y251814D01*
X117349D01*
X117874Y251289D01*
Y250240D01*
X117349Y249715D01*
X179824Y217815D02*
Y218864D01*
Y218340D01*
X182972D01*
Y217815D01*
Y218864D01*
X179824Y222013D02*
Y220964D01*
X180349Y220439D01*
X182448D01*
X182972Y220964D01*
Y222013D01*
X182448Y222538D01*
X180349D01*
X179824Y222013D01*
X180349Y223587D02*
X179824Y224112D01*
Y225162D01*
X180349Y225686D01*
X182448D01*
X182972Y225162D01*
Y224112D01*
X182448Y223587D01*
X180349D01*
X174706Y217815D02*
Y218864D01*
Y218340D01*
X177854D01*
Y217815D01*
Y218864D01*
X174706Y222013D02*
Y220964D01*
X175231Y220439D01*
X177330D01*
X177854Y220964D01*
Y222013D01*
X177330Y222538D01*
X175231D01*
X174706Y222013D01*
X177854Y225686D02*
Y223587D01*
X175755Y225686D01*
X175231D01*
X174706Y225162D01*
Y224112D01*
X175231Y223587D01*
X169588Y217815D02*
Y218864D01*
Y218340D01*
X172736D01*
Y217815D01*
Y218864D01*
X169588Y222013D02*
Y220964D01*
X170112Y220439D01*
X172211D01*
X172736Y220964D01*
Y222013D01*
X172211Y222538D01*
X170112D01*
X169588Y222013D01*
X172736Y225162D02*
X169588D01*
X171162Y223587D01*
Y225686D01*
X164725Y215728D02*
Y216778D01*
Y216253D01*
X167874D01*
Y215728D01*
Y216778D01*
X164725Y219927D02*
Y218877D01*
X165250Y218352D01*
X167349D01*
X167874Y218877D01*
Y219927D01*
X167349Y220451D01*
X165250D01*
X164725Y219927D01*
Y223600D02*
X165250Y222550D01*
X166300Y221501D01*
X167349D01*
X167874Y222025D01*
Y223075D01*
X167349Y223600D01*
X166824D01*
X166300Y223075D01*
Y221501D01*
X160250Y215728D02*
X159725Y216253D01*
Y217303D01*
X160250Y217827D01*
X160775D01*
X161300Y217303D01*
Y216778D01*
Y217303D01*
X161825Y217827D01*
X162349D01*
X162874Y217303D01*
Y216253D01*
X162349Y215728D01*
X159725Y218877D02*
X161825D01*
X162874Y219927D01*
X161825Y220976D01*
X159725D01*
X160250Y222025D02*
X159725Y222550D01*
Y223600D01*
X160250Y224125D01*
X160775D01*
X161300Y223600D01*
Y223075D01*
Y223600D01*
X161825Y224125D01*
X162349D01*
X162874Y223600D01*
Y222550D01*
X162349Y222025D01*
X154725Y215728D02*
Y216778D01*
Y216253D01*
X157874D01*
Y215728D01*
Y216778D01*
X154725Y219927D02*
Y218877D01*
X155250Y218352D01*
X157349D01*
X157874Y218877D01*
Y219927D01*
X157349Y220451D01*
X155250D01*
X154725Y219927D01*
X155250Y221501D02*
X154725Y222025D01*
Y223075D01*
X155250Y223600D01*
X155775D01*
X156300Y223075D01*
X156825Y223600D01*
X157349D01*
X157874Y223075D01*
Y222025D01*
X157349Y221501D01*
X156825D01*
X156300Y222025D01*
X155775Y221501D01*
X155250D01*
X156300Y222025D02*
Y223075D01*
X149903Y215059D02*
Y216109D01*
Y215584D01*
X153051D01*
Y215059D01*
Y216109D01*
X149903Y219257D02*
Y218208D01*
X150427Y217683D01*
X152526D01*
X153051Y218208D01*
Y219257D01*
X152526Y219782D01*
X150427D01*
X149903Y219257D01*
X153051Y220831D02*
Y221881D01*
Y221356D01*
X149903D01*
X150427Y220831D01*
Y223455D02*
X149903Y223980D01*
Y225030D01*
X150427Y225554D01*
X152526D01*
X153051Y225030D01*
Y223980D01*
X152526Y223455D01*
X150427D01*
X144725Y217827D02*
Y215728D01*
X146300D01*
X145775Y216778D01*
Y217303D01*
X146300Y217827D01*
X147349D01*
X147874Y217303D01*
Y216253D01*
X147349Y215728D01*
X144725Y218877D02*
X146825D01*
X147874Y219927D01*
X146825Y220976D01*
X144725D01*
X147874Y222025D02*
X144725D01*
Y223600D01*
X145250Y224125D01*
X146300D01*
X146825Y223600D01*
Y222025D01*
Y223075D02*
X147874Y224125D01*
X139666Y215453D02*
Y216502D01*
Y215978D01*
X142815D01*
Y215453D01*
Y216502D01*
X139666Y219651D02*
Y218601D01*
X140191Y218077D01*
X142290D01*
X142815Y218601D01*
Y219651D01*
X142290Y220176D01*
X140191D01*
X139666Y219651D01*
X142815Y221225D02*
Y222275D01*
Y221750D01*
X139666D01*
X140191Y221225D01*
X142815Y225948D02*
Y223849D01*
X140716Y225948D01*
X140191D01*
X139666Y225423D01*
Y224374D01*
X140191Y223849D01*
X137874Y215728D02*
X134725D01*
X137874Y217827D01*
X134725D01*
X135250Y220976D02*
X134725Y220451D01*
Y219402D01*
X135250Y218877D01*
X137349D01*
X137874Y219402D01*
Y220451D01*
X137349Y220976D01*
X137874Y224125D02*
Y222025D01*
X135775Y224125D01*
X135250D01*
X134725Y223600D01*
Y222550D01*
X135250Y222025D01*
X132579Y214272D02*
X130480D01*
X129430Y215321D01*
X130480Y216371D01*
X132579D01*
X131004D01*
Y214272D01*
X129955Y219519D02*
X129430Y218994D01*
Y217945D01*
X129955Y217420D01*
X132054D01*
X132579Y217945D01*
Y218994D01*
X132054Y219519D01*
X131004D01*
Y218470D01*
X132579Y220569D02*
X129430D01*
X132579Y222668D01*
X129430D01*
Y223717D02*
X132579D01*
Y225292D01*
X132054Y225816D01*
X129955D01*
X129430Y225292D01*
Y223717D01*
X125100Y215453D02*
Y216502D01*
Y215978D01*
X128248D01*
Y215453D01*
Y216502D01*
X125100Y219651D02*
Y218601D01*
X125624Y218077D01*
X127723D01*
X128248Y218601D01*
Y219651D01*
X127723Y220176D01*
X125624D01*
X125100Y219651D01*
X128248Y221225D02*
Y222275D01*
Y221750D01*
X125100D01*
X125624Y221225D01*
X128248Y225423D02*
X125100D01*
X126674Y223849D01*
Y225948D01*
X119981Y215059D02*
Y216109D01*
Y215584D01*
X123130D01*
Y215059D01*
Y216109D01*
X119981Y219257D02*
Y218208D01*
X120506Y217683D01*
X122605D01*
X123130Y218208D01*
Y219257D01*
X122605Y219782D01*
X120506D01*
X119981Y219257D01*
X123130Y220831D02*
Y221881D01*
Y221356D01*
X119981D01*
X120506Y220831D01*
X119981Y225554D02*
X120506Y224505D01*
X121556Y223455D01*
X122605D01*
X123130Y223980D01*
Y225030D01*
X122605Y225554D01*
X122080D01*
X121556Y225030D01*
Y223455D01*
X114994Y214272D02*
X114470Y214796D01*
Y215846D01*
X114994Y216371D01*
X115519D01*
X116044Y215846D01*
Y215321D01*
Y215846D01*
X116569Y216371D01*
X117093D01*
X117618Y215846D01*
Y214796D01*
X117093Y214272D01*
X114470Y217420D02*
X116569D01*
X117618Y218470D01*
X116569Y219519D01*
X114470D01*
X114994Y220569D02*
X114470Y221094D01*
Y222143D01*
X114994Y222668D01*
X115519D01*
X116044Y222143D01*
Y221618D01*
Y222143D01*
X116569Y222668D01*
X117093D01*
X117618Y222143D01*
Y221094D01*
X117093Y220569D01*
X117618Y223717D02*
X114470D01*
Y225292D01*
X114994Y225816D01*
X116044D01*
X116569Y225292D01*
Y223717D01*
Y224767D02*
X117618Y225816D01*
X65846Y264730D02*
X66371Y265255D01*
X67421D01*
X67945Y264730D01*
Y262631D01*
X67421Y262106D01*
X66371D01*
X65846Y262631D01*
Y264730D01*
X70866Y256102D02*
X71916D01*
X71391D01*
Y259251D01*
X70866Y258726D01*
X65748D02*
X66273Y259251D01*
X67322D01*
X67847Y258726D01*
Y256627D01*
X67322Y256102D01*
X66273D01*
X65748Y256627D01*
Y258726D01*
X57185Y262303D02*
Y264402D01*
X58235Y265452D01*
X59284Y264402D01*
Y262303D01*
Y263877D01*
X57185D01*
X60334Y265452D02*
X62433D01*
X61383D01*
Y262303D01*
X72933Y274902D02*
X70834D01*
X69784Y275951D01*
X70834Y277001D01*
X72933D01*
X71359D01*
Y274902D01*
X72933Y278050D02*
X69784D01*
X70834Y279100D01*
X69784Y280149D01*
X72933D01*
Y281199D02*
Y282248D01*
Y281723D01*
X69784D01*
X70309Y281199D01*
X68307Y274902D02*
X66208D01*
X65158Y275951D01*
X66208Y277001D01*
X68307D01*
X66733D01*
Y274902D01*
X68307Y278050D02*
X65158D01*
X66208Y279100D01*
X65158Y280149D01*
X68307D01*
X65683Y281199D02*
X65158Y281723D01*
Y282773D01*
X65683Y283298D01*
X67782D01*
X68307Y282773D01*
Y281723D01*
X67782Y281199D01*
X65683D01*
X53937Y259054D02*
Y255906D01*
X54987Y256955D01*
X56036Y255906D01*
Y259054D01*
X58660Y255906D02*
X57610D01*
X57086Y256430D01*
Y257480D01*
X57610Y258005D01*
X58660D01*
X59185Y257480D01*
Y256955D01*
X57086D01*
X60234Y259054D02*
Y255906D01*
X61809D01*
X62333Y256430D01*
Y256955D01*
Y257480D01*
X61809Y258005D01*
X60234D01*
X250524Y233338D02*
X247376D01*
Y234912D01*
X247901Y235437D01*
X248950D01*
X249475Y234912D01*
Y233338D01*
Y234387D02*
X250524Y235437D01*
X251049Y236486D02*
Y238585D01*
X247901Y241734D02*
X247376Y241209D01*
Y240160D01*
X247901Y239635D01*
X248425D01*
X248950Y240160D01*
Y241209D01*
X249475Y241734D01*
X250000D01*
X250524Y241209D01*
Y240160D01*
X250000Y239635D01*
X247901Y243308D02*
X248425D01*
Y242783D01*
Y243833D01*
Y243308D01*
X250000D01*
X250524Y243833D01*
X248425Y245932D02*
Y246982D01*
X248950Y247506D01*
X250524D01*
Y245932D01*
X250000Y245407D01*
X249475Y245932D01*
Y247506D01*
X247901Y249080D02*
X248425D01*
Y248556D01*
Y249605D01*
Y249080D01*
X250000D01*
X250524Y249605D01*
X248425Y251180D02*
X250000D01*
X250524Y251704D01*
Y253279D01*
X248425D01*
X250524Y254328D02*
Y255903D01*
X250000Y256427D01*
X249475Y255903D01*
Y254853D01*
X248950Y254328D01*
X248425Y254853D01*
Y256427D01*
X247901Y257477D02*
X247376Y258001D01*
Y259051D01*
X247901Y259576D01*
X248425D01*
X248950Y259051D01*
Y258526D01*
Y259051D01*
X249475Y259576D01*
X250000D01*
X250524Y259051D01*
Y258001D01*
X250000Y257477D01*
X205253Y238058D02*
Y241207D01*
X206827D01*
X207352Y240682D01*
Y239633D01*
X206827Y239108D01*
X205253D01*
X206302D02*
X207352Y238058D01*
X208401Y237533D02*
X210500D01*
X211550Y238058D02*
Y241207D01*
X212599Y240157D01*
X213649Y241207D01*
Y238058D01*
X215223D02*
X216273D01*
X216798Y238583D01*
Y239633D01*
X216273Y240157D01*
X215223D01*
X214699Y239633D01*
Y238583D01*
X215223Y238058D01*
X219946Y241207D02*
Y238058D01*
X218372D01*
X217847Y238583D01*
Y239633D01*
X218372Y240157D01*
X219946D01*
X222570Y238058D02*
X221520D01*
X220996Y238583D01*
Y239633D01*
X221520Y240157D01*
X222570D01*
X223095Y239633D01*
Y239108D01*
X220996D01*
X224144Y240682D02*
X224669Y241207D01*
X225719D01*
X226243Y240682D01*
Y240157D01*
X225719Y239633D01*
X225194D01*
X225719D01*
X226243Y239108D01*
Y238583D01*
X225719Y238058D01*
X224669D01*
X224144Y238583D01*
X80580Y290354D02*
X80055Y290879D01*
X79005D01*
X78481Y290354D01*
Y289829D01*
X79005Y289304D01*
X80055D01*
X80580Y288779D01*
Y288255D01*
X80055Y287730D01*
X79005D01*
X78481Y288255D01*
X81629Y287205D02*
X83728D01*
X86877Y290354D02*
X86352Y290879D01*
X85303D01*
X84778Y290354D01*
Y289829D01*
X85303Y289304D01*
X86352D01*
X86877Y288779D01*
Y288255D01*
X86352Y287730D01*
X85303D01*
X84778Y288255D01*
X87926Y289829D02*
Y288255D01*
X88451Y287730D01*
X90025D01*
Y287205D01*
X89501Y286681D01*
X88976D01*
X90025Y287730D02*
Y289829D01*
X91075Y287730D02*
Y289829D01*
X92649D01*
X93174Y289304D01*
Y287730D01*
X96323Y289829D02*
X94748D01*
X94223Y289304D01*
Y288255D01*
X94748Y287730D01*
X96323D01*
X146361Y290288D02*
X145836Y290813D01*
X144787D01*
X144262Y290288D01*
Y289763D01*
X144787Y289239D01*
X145836D01*
X146361Y288714D01*
Y288189D01*
X145836Y287665D01*
X144787D01*
X144262Y288189D01*
X147410Y287140D02*
X149509D01*
X150559Y287665D02*
Y290813D01*
X152133D01*
X152658Y290288D01*
Y289239D01*
X152133Y288714D01*
X150559D01*
X151609D02*
X152658Y287665D01*
X155282D02*
X154232D01*
X153708Y288189D01*
Y289239D01*
X154232Y289763D01*
X155282D01*
X155807Y289239D01*
Y288714D01*
X153708D01*
X156856Y287665D02*
X158430D01*
X158955Y288189D01*
X158430Y288714D01*
X157381D01*
X156856Y289239D01*
X157381Y289763D01*
X158955D01*
X161579Y287665D02*
X160529D01*
X160005Y288189D01*
Y289239D01*
X160529Y289763D01*
X161579D01*
X162104Y289239D01*
Y288714D01*
X160005D01*
X163678Y290288D02*
Y289763D01*
X163153D01*
X164203D01*
X163678D01*
Y288189D01*
X164203Y287665D01*
X171034Y264633D02*
Y267782D01*
X172609D01*
X173134Y267257D01*
Y266207D01*
X172609Y265683D01*
X171034D01*
X172084D02*
X173134Y264633D01*
X174183Y264108D02*
X176282D01*
X179431Y267257D02*
X178906Y267782D01*
X177856D01*
X177332Y267257D01*
Y266732D01*
X177856Y266207D01*
X178906D01*
X179431Y265683D01*
Y265158D01*
X178906Y264633D01*
X177856D01*
X177332Y265158D01*
X181005Y267257D02*
Y266732D01*
X180480D01*
X181530D01*
X181005D01*
Y265158D01*
X181530Y264633D01*
X183629Y266732D02*
X184678D01*
X185203Y266207D01*
Y264633D01*
X183629D01*
X183104Y265158D01*
X183629Y265683D01*
X185203D01*
X186777Y267257D02*
Y266732D01*
X186253D01*
X187302D01*
X186777D01*
Y265158D01*
X187302Y264633D01*
X188876Y266732D02*
Y265158D01*
X189401Y264633D01*
X190975D01*
Y266732D01*
X192025Y264633D02*
X193599D01*
X194124Y265158D01*
X193599Y265683D01*
X192550D01*
X192025Y266207D01*
X192550Y266732D01*
X194124D01*
X197273Y264633D02*
X195174D01*
X197273Y266732D01*
Y267257D01*
X196748Y267782D01*
X195698D01*
X195174Y267257D01*
X207484Y228905D02*
Y232053D01*
X209059D01*
X209583Y231528D01*
Y230479D01*
X209059Y229954D01*
X207484D01*
X208534D02*
X209583Y228905D01*
X210633Y228380D02*
X212732D01*
X215881Y231528D02*
X215356Y232053D01*
X214306D01*
X213782Y231528D01*
Y231004D01*
X214306Y230479D01*
X215356D01*
X215881Y229954D01*
Y229429D01*
X215356Y228905D01*
X214306D01*
X213782Y229429D01*
X217455Y231528D02*
Y231004D01*
X216930D01*
X217980D01*
X217455D01*
Y229429D01*
X217980Y228905D01*
X220079Y231004D02*
X221128D01*
X221653Y230479D01*
Y228905D01*
X220079D01*
X219554Y229429D01*
X220079Y229954D01*
X221653D01*
X223227Y231528D02*
Y231004D01*
X222703D01*
X223752D01*
X223227D01*
Y229429D01*
X223752Y228905D01*
X225326Y231004D02*
Y229429D01*
X225851Y228905D01*
X227426D01*
Y231004D01*
X228475Y228905D02*
X230049D01*
X230574Y229429D01*
X230049Y229954D01*
X229000D01*
X228475Y230479D01*
X229000Y231004D01*
X230574D01*
X231624Y228905D02*
X232673D01*
X232148D01*
Y232053D01*
X231624Y231528D01*
X141666Y253514D02*
X138518D01*
Y255088D01*
X139042Y255613D01*
X140092D01*
X140617Y255088D01*
Y253514D01*
Y254563D02*
X141666Y255613D01*
X142191Y256662D02*
Y258761D01*
X141666Y259811D02*
X138518D01*
Y261385D01*
X139042Y261910D01*
X140092D01*
X140617Y261385D01*
Y259811D01*
Y260860D02*
X141666Y261910D01*
Y264534D02*
Y263484D01*
X141141Y262960D01*
X140092D01*
X139567Y263484D01*
Y264534D01*
X140092Y265059D01*
X140617D01*
Y262960D01*
X141666Y266108D02*
Y267682D01*
X141141Y268207D01*
X140617Y267682D01*
Y266633D01*
X140092Y266108D01*
X139567Y266633D01*
Y268207D01*
X141666Y270831D02*
Y269781D01*
X141141Y269257D01*
X140092D01*
X139567Y269781D01*
Y270831D01*
X140092Y271356D01*
X140617D01*
Y269257D01*
X139042Y272930D02*
X139567D01*
Y272405D01*
Y273455D01*
Y272930D01*
X141141D01*
X141666Y273455D01*
X171066Y273885D02*
Y277033D01*
X172641D01*
X173165Y276509D01*
Y275459D01*
X172641Y274935D01*
X171066D01*
X172116D02*
X173165Y273885D01*
X174215Y273360D02*
X176314D01*
X177364Y273885D02*
Y277033D01*
X178938D01*
X179463Y276509D01*
Y275459D01*
X178938Y274935D01*
X177364D01*
X181037Y273885D02*
X182086D01*
X182611Y274410D01*
Y275459D01*
X182086Y275984D01*
X181037D01*
X180512Y275459D01*
Y274410D01*
X181037Y273885D01*
X183661Y275984D02*
Y274410D01*
X184185Y273885D01*
X184710Y274410D01*
X185235Y273885D01*
X185760Y274410D01*
Y275984D01*
X188383Y273885D02*
X187334D01*
X186809Y274410D01*
Y275459D01*
X187334Y275984D01*
X188383D01*
X188908Y275459D01*
Y274935D01*
X186809D01*
X189958Y275984D02*
Y273885D01*
Y274935D01*
X190483Y275459D01*
X191007Y275984D01*
X191532D01*
X171099Y254987D02*
Y258136D01*
X172673D01*
X173198Y257611D01*
Y256562D01*
X172673Y256037D01*
X171099D01*
X172149D02*
X173198Y254987D01*
X174248Y254463D02*
X176347D01*
X177396Y254987D02*
Y258136D01*
X178446Y257086D01*
X179495Y258136D01*
Y254987D01*
X181070D02*
X182119D01*
X182644Y255512D01*
Y256562D01*
X182119Y257086D01*
X181070D01*
X180545Y256562D01*
Y255512D01*
X181070Y254987D01*
X185793Y258136D02*
Y254987D01*
X184218D01*
X183694Y255512D01*
Y256562D01*
X184218Y257086D01*
X185793D01*
X188416Y254987D02*
X187367D01*
X186842Y255512D01*
Y256562D01*
X187367Y257086D01*
X188416D01*
X188941Y256562D01*
Y256037D01*
X186842D01*
X192090Y254987D02*
X189991D01*
X192090Y257086D01*
Y257611D01*
X191565Y258136D01*
X190515D01*
X189991Y257611D01*
X201742Y223196D02*
Y226344D01*
X203316D01*
X203841Y225820D01*
Y224770D01*
X203316Y224246D01*
X201742D01*
X202792D02*
X203841Y223196D01*
X204891Y222671D02*
X206990D01*
X208039Y223196D02*
Y226344D01*
X209089Y225295D01*
X210138Y226344D01*
Y223196D01*
X211713D02*
X212762D01*
X213287Y223721D01*
Y224770D01*
X212762Y225295D01*
X211713D01*
X211188Y224770D01*
Y223721D01*
X211713Y223196D01*
X216436Y226344D02*
Y223196D01*
X214861D01*
X214336Y223721D01*
Y224770D01*
X214861Y225295D01*
X216436D01*
X219059Y223196D02*
X218010D01*
X217485Y223721D01*
Y224770D01*
X218010Y225295D01*
X219059D01*
X219584Y224770D01*
Y224246D01*
X217485D01*
X220634Y223196D02*
X221683D01*
X221158D01*
Y226344D01*
X220634Y225820D01*
X223819Y251446D02*
X221720D01*
X221195Y250921D01*
Y249871D01*
X221720Y249347D01*
X223819D01*
X224343Y249871D01*
Y250921D01*
X223294Y250396D02*
X224343Y251446D01*
Y250921D02*
X223819Y251446D01*
X224868Y252495D02*
Y254594D01*
X221195Y255644D02*
X224343D01*
Y257743D01*
X221195Y260892D02*
Y258792D01*
X224343D01*
Y260892D01*
X222769Y258792D02*
Y259842D01*
X221195Y261941D02*
X224343D01*
Y263515D01*
X223819Y264040D01*
X221720D01*
X221195Y263515D01*
Y261941D01*
X224343Y265090D02*
Y266664D01*
X223819Y267189D01*
X223294Y266664D01*
Y265614D01*
X222769Y265090D01*
X222244Y265614D01*
Y267189D01*
X21917Y143569D02*
X20868D01*
X21392D01*
Y140945D01*
X20868Y140420D01*
X20343D01*
X19818Y140945D01*
X22967Y139896D02*
X25066D01*
X28214Y143044D02*
X27690Y143569D01*
X26640D01*
X26115Y143044D01*
Y142519D01*
X26640Y141995D01*
X27690D01*
X28214Y141470D01*
Y140945D01*
X27690Y140420D01*
X26640D01*
X26115Y140945D01*
X29264Y143569D02*
Y140420D01*
X30838D01*
X31363Y140945D01*
Y143044D01*
X30838Y143569D01*
X29264D01*
X108203Y228709D02*
Y227660D01*
Y228184D01*
X110827D01*
X111351Y227660D01*
Y227135D01*
X110827Y226610D01*
X111876Y229759D02*
Y231858D01*
X108203Y232907D02*
X111351D01*
Y234482D01*
X110827Y235006D01*
X110302D01*
X109777Y234482D01*
Y232907D01*
Y234482D01*
X109252Y235006D01*
X108727D01*
X108203Y234482D01*
Y232907D01*
X109252Y236056D02*
X110827D01*
X111351Y236580D01*
Y238155D01*
X109252D01*
X111351Y239204D02*
Y240779D01*
X110827Y241303D01*
X110302Y240779D01*
Y239729D01*
X109777Y239204D01*
X109252Y239729D01*
Y241303D01*
X105614Y256725D02*
X104565D01*
X105089D01*
Y254101D01*
X104565Y253576D01*
X104040D01*
X103515Y254101D01*
X106664Y253052D02*
X108763D01*
X109812Y253576D02*
Y255676D01*
X110862Y256725D01*
X111911Y255676D01*
Y253576D01*
Y255151D01*
X109812D01*
X112961Y252527D02*
Y255676D01*
X114535D01*
X115060Y255151D01*
Y254101D01*
X114535Y253576D01*
X112961D01*
X116110Y252527D02*
Y255676D01*
X117684D01*
X118209Y255151D01*
Y254101D01*
X117684Y253576D01*
X116110D01*
X119258D02*
Y256725D01*
X120308Y255676D01*
X121357Y256725D01*
Y253576D01*
X122932D02*
X123981D01*
X124506Y254101D01*
Y255151D01*
X123981Y255676D01*
X122932D01*
X122407Y255151D01*
Y254101D01*
X122932Y253576D01*
X127654Y256725D02*
Y253576D01*
X126080D01*
X125555Y254101D01*
Y255151D01*
X126080Y255676D01*
X127654D01*
X130278Y253576D02*
X129229D01*
X128704Y254101D01*
Y255151D01*
X129229Y255676D01*
X130278D01*
X130803Y255151D01*
Y254626D01*
X128704D01*
X131852Y253576D02*
X132902D01*
X132377D01*
Y256725D01*
X131852Y256200D01*
X105385Y289501D02*
X104335D01*
X104860D01*
Y286877D01*
X104335Y286352D01*
X103811D01*
X103286Y286877D01*
X106434Y285827D02*
X108533D01*
X109583Y286352D02*
Y288451D01*
X110633Y289501D01*
X111682Y288451D01*
Y286352D01*
Y287926D01*
X109583D01*
X112732Y285302D02*
Y288451D01*
X114306D01*
X114831Y287926D01*
Y286877D01*
X114306Y286352D01*
X112732D01*
X115880Y285302D02*
Y288451D01*
X117454D01*
X117979Y287926D01*
Y286877D01*
X117454Y286352D01*
X115880D01*
X119029D02*
Y289501D01*
X120078Y288451D01*
X121128Y289501D01*
Y286352D01*
X122702D02*
X123752D01*
X124276Y286877D01*
Y287926D01*
X123752Y288451D01*
X122702D01*
X122177Y287926D01*
Y286877D01*
X122702Y286352D01*
X127425Y289501D02*
Y286352D01*
X125851D01*
X125326Y286877D01*
Y287926D01*
X125851Y288451D01*
X127425D01*
X130049Y286352D02*
X128999D01*
X128474Y286877D01*
Y287926D01*
X128999Y288451D01*
X130049D01*
X130573Y287926D01*
Y287402D01*
X128474D01*
X131623Y288976D02*
X132148Y289501D01*
X133197D01*
X133722Y288976D01*
Y286877D01*
X133197Y286352D01*
X132148D01*
X131623Y286877D01*
Y288976D01*
X194361Y272211D02*
Y269062D01*
X195935D01*
X196460Y269587D01*
Y271686D01*
X195935Y272211D01*
X194361D01*
X197509Y268537D02*
X199608D01*
X202757Y271686D02*
X202232Y272211D01*
X201183D01*
X200658Y271686D01*
Y271161D01*
X201183Y270636D01*
X202232D01*
X202757Y270112D01*
Y269587D01*
X202232Y269062D01*
X201183D01*
X200658Y269587D01*
X204331Y271686D02*
Y271161D01*
X203806D01*
X204856D01*
X204331D01*
Y269587D01*
X204856Y269062D01*
X206955Y271161D02*
X208005D01*
X208529Y270636D01*
Y269062D01*
X206955D01*
X206430Y269587D01*
X206955Y270112D01*
X208529D01*
X210104Y271686D02*
Y271161D01*
X209579D01*
X210628D01*
X210104D01*
Y269587D01*
X210628Y269062D01*
X212203Y271161D02*
Y269587D01*
X212727Y269062D01*
X214302D01*
Y271161D01*
X215351Y269062D02*
X216926D01*
X217450Y269587D01*
X216926Y270112D01*
X215876D01*
X215351Y270636D01*
X215876Y271161D01*
X217450D01*
X194393Y281660D02*
Y278511D01*
X195967D01*
X196492Y279036D01*
Y281135D01*
X195967Y281660D01*
X194393D01*
X197542Y277986D02*
X199641D01*
X200690Y278511D02*
Y281660D01*
X202264D01*
X202789Y281135D01*
Y280085D01*
X202264Y279560D01*
X200690D01*
X204364Y278511D02*
X205413D01*
X205938Y279036D01*
Y280085D01*
X205413Y280610D01*
X204364D01*
X203839Y280085D01*
Y279036D01*
X204364Y278511D01*
X206987Y280610D02*
Y279036D01*
X207512Y278511D01*
X208037Y279036D01*
X208562Y278511D01*
X209086Y279036D01*
Y280610D01*
X211710Y278511D02*
X210661D01*
X210136Y279036D01*
Y280085D01*
X210661Y280610D01*
X211710D01*
X212235Y280085D01*
Y279560D01*
X210136D01*
X213285Y280610D02*
Y278511D01*
Y279560D01*
X213809Y280085D01*
X214334Y280610D01*
X214859D01*
X194327Y262959D02*
Y259810D01*
X195901D01*
X196426Y260335D01*
Y262434D01*
X195901Y262959D01*
X194327D01*
X197476Y259285D02*
X199575D01*
X200624Y259810D02*
Y262959D01*
X201674Y261909D01*
X202723Y262959D01*
Y259810D01*
X204298D02*
X205347D01*
X205872Y260335D01*
Y261384D01*
X205347Y261909D01*
X204298D01*
X203773Y261384D01*
Y260335D01*
X204298Y259810D01*
X209020Y262959D02*
Y259810D01*
X207446D01*
X206921Y260335D01*
Y261384D01*
X207446Y261909D01*
X209020D01*
X211644Y259810D02*
X210595D01*
X210070Y260335D01*
Y261384D01*
X210595Y261909D01*
X211644D01*
X212169Y261384D01*
Y260860D01*
X210070D01*
X141536Y110501D02*
X141011Y109977D01*
Y108927D01*
X141536Y108402D01*
X143635D01*
X144160Y108927D01*
Y109977D01*
X143635Y110501D01*
X144685Y111551D02*
Y113650D01*
X141536Y116799D02*
X141011Y116274D01*
Y115224D01*
X141536Y114699D01*
X143635D01*
X144160Y115224D01*
Y116274D01*
X143635Y116799D01*
X144160Y118373D02*
Y119422D01*
X143635Y119947D01*
X142585D01*
X142061Y119422D01*
Y118373D01*
X142585Y117848D01*
X143635D01*
X144160Y118373D01*
Y120997D02*
X142061D01*
Y121521D01*
X142585Y122046D01*
X144160D01*
X142585D01*
X142061Y122571D01*
X142585Y123096D01*
X144160D01*
X145209Y124145D02*
X142061D01*
Y125720D01*
X142585Y126244D01*
X143635D01*
X144160Y125720D01*
Y124145D01*
Y129393D02*
Y127294D01*
X142061Y129393D01*
X141536D01*
X141011Y128868D01*
Y127819D01*
X141536Y127294D01*
X174410Y110534D02*
X173885Y110009D01*
Y108960D01*
X174410Y108435D01*
X176509D01*
X177034Y108960D01*
Y110009D01*
X176509Y110534D01*
X177559Y111584D02*
Y113683D01*
X174410Y116831D02*
X173885Y116306D01*
Y115257D01*
X174410Y114732D01*
X176509D01*
X177034Y115257D01*
Y116306D01*
X176509Y116831D01*
X177034Y118405D02*
Y119455D01*
X176509Y119980D01*
X175460D01*
X174935Y119455D01*
Y118405D01*
X175460Y117881D01*
X176509D01*
X177034Y118405D01*
Y121029D02*
X174935D01*
Y121554D01*
X175460Y122079D01*
X177034D01*
X175460D01*
X174935Y122604D01*
X175460Y123128D01*
X177034D01*
X178083Y124178D02*
X174935D01*
Y125752D01*
X175460Y126277D01*
X176509D01*
X177034Y125752D01*
Y124178D01*
Y127327D02*
Y128376D01*
Y127851D01*
X173885D01*
X174410Y127327D01*
X253413Y231498D02*
X252888Y230973D01*
Y229923D01*
X253413Y229398D01*
X255511D01*
X256036Y229923D01*
Y230973D01*
X255511Y231498D01*
X256561Y232547D02*
Y234646D01*
X256036Y235696D02*
X253937D01*
X252888Y236745D01*
X253937Y237795D01*
X256036D01*
X254462D01*
Y235696D01*
X256036Y238844D02*
X253937D01*
Y240419D01*
X254462Y240943D01*
X256036D01*
X253413Y242518D02*
X253937D01*
Y241993D01*
Y243042D01*
Y242518D01*
X255511D01*
X256036Y243042D01*
X204071Y134251D02*
X203546Y134776D01*
X202497D01*
X201972Y134251D01*
Y132152D01*
X202497Y131628D01*
X203546D01*
X204071Y132152D01*
X205645Y133727D02*
X206695D01*
X207220Y133202D01*
Y131628D01*
X205645D01*
X205120Y132152D01*
X205645Y132677D01*
X207220D01*
X208269Y131628D02*
X209318D01*
X208794D01*
Y134776D01*
X208269D01*
X210893Y133727D02*
Y132152D01*
X211418Y131628D01*
X212992D01*
Y131103D01*
X212467Y130578D01*
X211942D01*
X212992Y131628D02*
Y133727D01*
X214041Y130578D02*
Y133727D01*
X215616D01*
X216141Y133202D01*
Y132152D01*
X215616Y131628D01*
X214041D01*
X217190D02*
X218764D01*
X219289Y132152D01*
X218764Y132677D01*
X217715D01*
X217190Y133202D01*
X217715Y133727D01*
X219289D01*
X220863Y131628D02*
X221913D01*
X222438Y132152D01*
Y133202D01*
X221913Y133727D01*
X220863D01*
X220339Y133202D01*
Y132152D01*
X220863Y131628D01*
D15*
X193602Y261319D02*
D03*
X193602Y270768D02*
D03*
X193602Y280119D02*
D03*
M02*
