G04*
G04 #@! TF.GenerationSoftware,Altium Limited,Altium Designer,23.10.1 (27)*
G04*
G04 Layer_Physical_Order=1*
G04 Layer_Color=255*
%FSLAX25Y25*%
%MOIN*%
G70*
G04*
G04 #@! TF.SameCoordinates,0F76161B-FDE3-46C5-8999-B479EBFB7D10*
G04*
G04*
G04 #@! TF.FilePolarity,Positive*
G04*
G01*
G75*
%ADD11C,0.01000*%
%ADD16R,0.03150X0.05906*%
%ADD17R,0.05906X0.03150*%
%ADD18R,0.10236X0.05512*%
%ADD19R,0.07480X0.02756*%
%ADD20R,0.07087X0.06693*%
%ADD21R,0.02559X0.03543*%
%ADD22R,0.03543X0.02559*%
%ADD23R,0.02756X0.06004*%
%ADD24R,0.03150X0.02756*%
%ADD25R,0.09843X0.03543*%
%ADD26R,0.03150X0.03150*%
%ADD27R,0.04724X0.06890*%
%ADD44C,0.06000*%
%ADD47C,0.07874*%
%ADD48C,0.01181*%
%ADD49C,0.03937*%
%ADD50C,0.04724*%
%ADD51O,0.03543X0.06693*%
%ADD52C,0.03543*%
%ADD53C,0.06299*%
G04:AMPARAMS|DCode=54|XSize=62.99mil|YSize=62.99mil|CornerRadius=15.75mil|HoleSize=0mil|Usage=FLASHONLY|Rotation=180.000|XOffset=0mil|YOffset=0mil|HoleType=Round|Shape=RoundedRectangle|*
%AMROUNDEDRECTD54*
21,1,0.06299,0.03150,0,0,180.0*
21,1,0.03150,0.06299,0,0,180.0*
1,1,0.03150,-0.01575,0.01575*
1,1,0.03150,0.01575,0.01575*
1,1,0.03150,0.01575,-0.01575*
1,1,0.03150,-0.01575,-0.01575*
%
%ADD54ROUNDEDRECTD54*%
%ADD55C,0.03937*%
%ADD56C,0.02362*%
G36*
X277899Y292783D02*
X279338Y292496D01*
X280693Y291935D01*
X281913Y291120D01*
X282950Y290082D01*
X283766Y288863D01*
X284327Y287507D01*
X284613Y286068D01*
X284613Y285335D01*
Y265650D01*
X259735D01*
X259734Y253035D01*
X259734Y249651D01*
X259733Y245742D01*
X259733Y240530D01*
X259732Y232453D01*
X259732Y229073D01*
X259732Y226521D01*
X259732Y222971D01*
X259731Y216339D01*
X257874D01*
Y209646D01*
X259377D01*
X259731Y209292D01*
X259730Y200073D01*
X259730D01*
X259730Y200073D01*
X259730Y195006D01*
X259730D01*
X259730Y195006D01*
X259730Y191732D01*
X259730D01*
X259730Y191732D01*
X259729Y180512D01*
X259729Y178543D01*
X259729D01*
X259729Y178543D01*
X259728Y172638D01*
X259728Y168701D01*
X259728D01*
X259728Y168701D01*
X259724Y109055D01*
X259724D01*
X259724Y109055D01*
X259723Y87189D01*
X284613D01*
X284613Y23327D01*
Y22593D01*
X284327Y21154D01*
X283766Y19799D01*
X282950Y18579D01*
X281913Y17542D01*
X280693Y16726D01*
X279338Y16165D01*
X279221Y16142D01*
X20402D01*
X19369Y16570D01*
X18375Y17234D01*
X17529Y18079D01*
X16865Y19074D01*
X16407Y20178D01*
X16174Y21351D01*
Y21949D01*
Y285335D01*
Y286068D01*
X16460Y287507D01*
X17022Y288863D01*
X17837Y290082D01*
X18874Y291120D01*
X20094Y291935D01*
X21450Y292496D01*
X22888Y292783D01*
X23622D01*
X277165Y292783D01*
X277899Y292783D01*
D02*
G37*
%LPC*%
G36*
X180512Y282283D02*
X177165D01*
Y277953D01*
X180512D01*
Y279207D01*
X182677D01*
Y278150D01*
X186614D01*
Y282087D01*
X182677D01*
Y281029D01*
X180512D01*
Y282283D01*
D02*
G37*
G36*
X122120Y291868D02*
X95079D01*
X93948Y291719D01*
X92895Y291283D01*
X91990Y290589D01*
X88348Y286947D01*
X78943D01*
X77812Y286798D01*
X76759Y286362D01*
X75854Y285667D01*
X70533Y280347D01*
X69839Y279442D01*
X69403Y278389D01*
X69254Y277258D01*
Y227264D01*
X69403Y226133D01*
X69839Y225080D01*
X70533Y224175D01*
X77915Y216793D01*
X78820Y216099D01*
X79873Y215663D01*
X81004Y215514D01*
X142089D01*
Y125928D01*
X138348Y122188D01*
X137654Y121283D01*
X137218Y120230D01*
X137069Y119099D01*
Y106146D01*
X135015Y104093D01*
X124132D01*
X118640Y109585D01*
X117735Y110279D01*
X116682Y110715D01*
X115551Y110864D01*
X114421Y110715D01*
X113367Y110279D01*
X112462Y109585D01*
X112133Y109155D01*
X111969Y109177D01*
X111861Y109365D01*
X111746Y109711D01*
X111980Y110277D01*
Y110982D01*
X111711Y111634D01*
X111212Y112132D01*
X110561Y112402D01*
X109856D01*
X109205Y112132D01*
X108713Y111640D01*
X75590D01*
Y112598D01*
X67323D01*
Y109055D01*
X70135D01*
X70286Y108555D01*
X69856Y108268D01*
X67323D01*
Y104724D01*
X69856D01*
X70286Y104437D01*
X70135Y103937D01*
X67323D01*
Y100394D01*
X75590D01*
Y101353D01*
X97233D01*
X97725Y100860D01*
X98376Y100591D01*
X99081D01*
X99732Y100860D01*
X100230Y101359D01*
X100500Y102010D01*
Y102715D01*
X100230Y103366D01*
X100008Y103588D01*
X100216Y104088D01*
X111941D01*
X112462Y103407D01*
X119234Y96636D01*
X120139Y95942D01*
X121192Y95505D01*
X122323Y95356D01*
X136825D01*
X137955Y95505D01*
X139008Y95942D01*
X139913Y96636D01*
X144526Y101248D01*
X145220Y102153D01*
X145656Y103206D01*
X145805Y104337D01*
Y117290D01*
X148266Y119751D01*
X166732D01*
X167863Y119900D01*
X168916Y120336D01*
X169821Y121030D01*
X170515Y121935D01*
X170523Y121954D01*
X172047D01*
Y126284D01*
X170523D01*
X170515Y126303D01*
X169821Y127208D01*
X168916Y127902D01*
X167863Y128338D01*
X166732Y128487D01*
X150825D01*
Y215514D01*
X167187D01*
X186970Y195730D01*
X187875Y195036D01*
X188928Y194600D01*
X190059Y194451D01*
X237513D01*
X238644Y194600D01*
X239698Y195036D01*
X240602Y195730D01*
X245215Y200343D01*
X245909Y201247D01*
X246345Y202301D01*
X246494Y203431D01*
X246345Y204562D01*
X245909Y205615D01*
X245800Y205757D01*
Y214642D01*
X245768Y214720D01*
Y214805D01*
X245708Y214950D01*
X245648Y215010D01*
X245615Y215088D01*
X244967Y215737D01*
X244888Y215769D01*
X244828Y215829D01*
X244684Y215889D01*
X244599D01*
X244521Y215922D01*
X244094D01*
Y216339D01*
X240158D01*
Y215889D01*
X240014Y215829D01*
X239954Y215769D01*
X239876Y215737D01*
X239325Y215186D01*
X239293Y215108D01*
X239233Y215048D01*
X239173Y214903D01*
Y214819D01*
X239141Y214740D01*
Y206599D01*
X239037Y206520D01*
X235704Y203187D01*
X191868D01*
X172085Y222971D01*
X171180Y223665D01*
X170127Y224101D01*
X168996Y224250D01*
X163921D01*
Y228898D01*
X164421Y229105D01*
X164692Y228835D01*
X165633Y228445D01*
X166651D01*
X167591Y228835D01*
X168311Y229554D01*
X168392Y229749D01*
X168892D01*
X168972Y229554D01*
X169692Y228835D01*
X170633Y228445D01*
X171651D01*
X172591Y228835D01*
X173311Y229554D01*
X173392Y229749D01*
X173892D01*
X173972Y229554D01*
X174692Y228835D01*
X175633Y228445D01*
X176651D01*
X177591Y228835D01*
X178311Y229554D01*
X178392Y229749D01*
X178892D01*
X178972Y229554D01*
X179692Y228835D01*
X180633Y228445D01*
X181651D01*
X182591Y228835D01*
X183311Y229554D01*
X183701Y230495D01*
Y231513D01*
X183311Y232453D01*
X182591Y233173D01*
X181651Y233563D01*
X180633D01*
X179692Y233173D01*
X178972Y232453D01*
X178892Y232259D01*
X178392D01*
X178311Y232453D01*
X177591Y233173D01*
X177397Y233254D01*
Y233754D01*
X177591Y233835D01*
X178311Y234554D01*
X178701Y235495D01*
Y236513D01*
X178311Y237454D01*
X177591Y238173D01*
X176651Y238563D01*
X175633D01*
X174692Y238173D01*
X173972Y237454D01*
X173892Y237259D01*
X173392D01*
X173311Y237454D01*
X172591Y238173D01*
X171651Y238563D01*
X170633D01*
X169692Y238173D01*
X168972Y237454D01*
X168892Y237259D01*
X168392D01*
X168311Y237454D01*
X167591Y238173D01*
X166651Y238563D01*
X165633D01*
X164692Y238173D01*
X163972Y237454D01*
X163892Y237259D01*
X163392D01*
X163311Y237454D01*
X162591Y238173D01*
X161651Y238563D01*
X160633D01*
X159692Y238173D01*
X158972Y237454D01*
X158583Y236513D01*
Y235495D01*
X158972Y234554D01*
X159626Y233900D01*
X159662Y233760D01*
X159664Y233595D01*
X159631Y233319D01*
X159176Y232969D01*
X158827Y232515D01*
X158551Y232482D01*
X158386Y232483D01*
X158245Y232519D01*
X157591Y233173D01*
X156651Y233563D01*
X155633D01*
X154692Y233173D01*
X153972Y232453D01*
X153892Y232259D01*
X153392D01*
X153311Y232453D01*
X152591Y233173D01*
X152397Y233254D01*
Y233754D01*
X152591Y233835D01*
X153311Y234554D01*
X153701Y235495D01*
Y236513D01*
X153311Y237454D01*
X152591Y238173D01*
X151651Y238563D01*
X150633D01*
X149692Y238173D01*
X148972Y237454D01*
X148892Y237259D01*
X148392D01*
X148311Y237454D01*
X147591Y238173D01*
X146651Y238563D01*
X145633D01*
X144692Y238173D01*
X143972Y237454D01*
X143892Y237259D01*
X143392D01*
X143311Y237454D01*
X142591Y238173D01*
X141651Y238563D01*
X140633D01*
X139692Y238173D01*
X138972Y237454D01*
X138892Y237259D01*
X138392D01*
X138311Y237454D01*
X137591Y238173D01*
X136651Y238563D01*
X135633D01*
X134692Y238173D01*
X133972Y237454D01*
X133892Y237259D01*
X133392D01*
X133311Y237454D01*
X132591Y238173D01*
X131651Y238563D01*
X130633D01*
X129692Y238173D01*
X128972Y237454D01*
X128892Y237259D01*
X128392D01*
X128311Y237454D01*
X127591Y238173D01*
X126651Y238563D01*
X125633D01*
X124692Y238173D01*
X123972Y237454D01*
X123892Y237259D01*
X123392D01*
X123311Y237454D01*
X122591Y238173D01*
X121651Y238563D01*
X120633D01*
X119692Y238173D01*
X118972Y237454D01*
X118892Y237259D01*
X118392D01*
X118311Y237454D01*
X117591Y238173D01*
X117053Y238396D01*
Y244783D01*
X116984Y245132D01*
X116786Y245428D01*
X114916Y247298D01*
X114620Y247495D01*
X114272Y247565D01*
X90535D01*
X87652Y250448D01*
Y253839D01*
X89567D01*
Y261516D01*
X84055D01*
Y253839D01*
X85830D01*
Y250070D01*
X85899Y249721D01*
X86097Y249426D01*
X89513Y246009D01*
X89809Y245812D01*
X90158Y245742D01*
X113894D01*
X115231Y244406D01*
Y238396D01*
X114692Y238173D01*
X113972Y237454D01*
X113583Y236513D01*
Y235495D01*
X113972Y234554D01*
X114692Y233835D01*
X114887Y233754D01*
Y233254D01*
X114692Y233173D01*
X113972Y232453D01*
X113583Y231513D01*
Y230495D01*
X113972Y229554D01*
X114692Y228835D01*
X115633Y228445D01*
X116651D01*
X117591Y228835D01*
X118311Y229554D01*
X118392Y229749D01*
X118892D01*
X118972Y229554D01*
X119692Y228835D01*
X120633Y228445D01*
X121651D01*
X122591Y228835D01*
X123311Y229554D01*
X123392Y229749D01*
X123892D01*
X123972Y229554D01*
X124692Y228835D01*
X125633Y228445D01*
X126651D01*
X127591Y228835D01*
X128311Y229554D01*
X128392Y229749D01*
X128892D01*
X128972Y229554D01*
X129692Y228835D01*
X130633Y228445D01*
X131651D01*
X132591Y228835D01*
X133311Y229554D01*
X133392Y229749D01*
X133892D01*
X133972Y229554D01*
X134692Y228835D01*
X135633Y228445D01*
X136651D01*
X137591Y228835D01*
X138311Y229554D01*
X138392Y229749D01*
X138892D01*
X138972Y229554D01*
X139692Y228835D01*
X140633Y228445D01*
X141651D01*
X142591Y228835D01*
X143311Y229554D01*
X143392Y229749D01*
X143892D01*
X143972Y229554D01*
X144692Y228835D01*
X145633Y228445D01*
X146651D01*
X147591Y228835D01*
X148311Y229554D01*
X148392Y229749D01*
X148892D01*
X148972Y229554D01*
X149692Y228835D01*
X150633Y228445D01*
X151651D01*
X152591Y228835D01*
X153311Y229554D01*
X153392Y229749D01*
X153892D01*
X153972Y229554D01*
X154692Y228835D01*
X155633Y228445D01*
X156651D01*
X157591Y228835D01*
X157862Y229105D01*
X158362Y228898D01*
Y224250D01*
X104548D01*
X104448Y224750D01*
X104921Y224946D01*
X106146Y225764D01*
X107188Y226806D01*
X108007Y228032D01*
X108571Y229393D01*
X108858Y230838D01*
Y232312D01*
X108571Y233757D01*
X108007Y235118D01*
X107188Y236343D01*
X106146Y237385D01*
X104921Y238204D01*
X103560Y238768D01*
X102115Y239055D01*
X100641D01*
X99196Y238768D01*
X97835Y238204D01*
X96609Y237385D01*
X95568Y236343D01*
X94749Y235118D01*
X94185Y233757D01*
X93898Y232312D01*
Y230838D01*
X94185Y229393D01*
X94749Y228032D01*
X95568Y226806D01*
X96609Y225764D01*
X97835Y224946D01*
X98308Y224750D01*
X98208Y224250D01*
X82813D01*
X77990Y229073D01*
Y275449D01*
X80752Y278211D01*
X90158D01*
X91288Y278360D01*
X92342Y278796D01*
X93246Y279490D01*
X96888Y283132D01*
X120310D01*
X124136Y279307D01*
Y274952D01*
X123674Y274760D01*
X121570Y276865D01*
X121806Y277274D01*
X122047Y278175D01*
Y279108D01*
X121806Y280009D01*
X121339Y280817D01*
X120680Y281477D01*
X119872Y281944D01*
X118970Y282185D01*
X118037D01*
X117136Y281944D01*
X116328Y281477D01*
X115669Y280817D01*
X115202Y280009D01*
X114961Y279108D01*
Y278175D01*
X115202Y277274D01*
X115669Y276466D01*
X116328Y275806D01*
X117136Y275340D01*
X118037Y275098D01*
X118970D01*
X119872Y275340D01*
X120281Y275576D01*
X122612Y273245D01*
Y250295D01*
X122682Y249947D01*
X122879Y249651D01*
X124139Y248392D01*
X124103Y248163D01*
X123960Y247891D01*
X120622D01*
X119415Y249098D01*
Y259470D01*
X119872Y259592D01*
X120680Y260058D01*
X121339Y260718D01*
X121806Y261526D01*
X122047Y262427D01*
Y263360D01*
X121806Y264261D01*
X121339Y265069D01*
X120680Y265729D01*
X119872Y266196D01*
X118970Y266437D01*
X118037D01*
X117136Y266196D01*
X116328Y265729D01*
X115669Y265069D01*
X115202Y264261D01*
X114961Y263360D01*
Y262427D01*
X115202Y261526D01*
X115669Y260718D01*
X116328Y260058D01*
X117136Y259592D01*
X117593Y259470D01*
Y248721D01*
X117662Y248372D01*
X117860Y248076D01*
X119600Y246336D01*
X119895Y246139D01*
X120244Y246069D01*
X204689D01*
X210605Y240153D01*
Y228429D01*
X200143Y217967D01*
X199946Y217672D01*
X199876Y217323D01*
Y216339D01*
X198819D01*
Y209646D01*
X202756D01*
Y216339D01*
X201699D01*
Y216945D01*
X205271Y220518D01*
X205365Y220499D01*
X205782Y220079D01*
Y216339D01*
X204724D01*
Y209646D01*
X208661D01*
Y216339D01*
X207604D01*
Y219701D01*
X214424Y226521D01*
X214561Y226727D01*
X214914Y226747D01*
X215101Y226703D01*
X215263Y226461D01*
X223498Y218225D01*
Y216339D01*
X222441D01*
Y209646D01*
X226378D01*
Y216339D01*
X225321D01*
Y218602D01*
X225251Y218951D01*
X225054Y219247D01*
X216818Y227482D01*
Y241796D01*
X216749Y242145D01*
X216551Y242440D01*
X207367Y251625D01*
X207071Y251822D01*
X206723Y251891D01*
X162685D01*
X161541Y253035D01*
Y281201D01*
X161472Y281550D01*
X161274Y281845D01*
X159503Y283617D01*
X159207Y283814D01*
X158858Y283884D01*
X157283D01*
Y286614D01*
X151772D01*
Y283490D01*
X142618D01*
Y284252D01*
X138287D01*
Y281238D01*
X132856D01*
X132723Y282246D01*
X132287Y283300D01*
X131593Y284205D01*
X125208Y290589D01*
X124304Y291283D01*
X123250Y291719D01*
X122120Y291868D01*
D02*
G37*
G36*
X273975Y288976D02*
X272482D01*
X271018Y288685D01*
X269638Y288114D01*
X268397Y287284D01*
X267342Y286229D01*
X266512Y284987D01*
X265941Y283608D01*
X265650Y282144D01*
Y280651D01*
X265941Y279187D01*
X266512Y277808D01*
X267342Y276567D01*
X268397Y275511D01*
X269638Y274681D01*
X271018Y274110D01*
X272482Y273819D01*
X273975D01*
X275439Y274110D01*
X276818Y274681D01*
X278060Y275511D01*
X279115Y276567D01*
X279944Y277808D01*
X280516Y279187D01*
X280807Y280651D01*
Y282144D01*
X280516Y283608D01*
X279944Y284987D01*
X279115Y286229D01*
X278060Y287284D01*
X276818Y288114D01*
X275439Y288685D01*
X273975Y288976D01*
D02*
G37*
G36*
X28306D02*
X26813D01*
X25348Y288685D01*
X23969Y288114D01*
X22728Y287284D01*
X21672Y286229D01*
X20843Y284987D01*
X20272Y283608D01*
X19980Y282144D01*
Y280651D01*
X20272Y279187D01*
X20843Y277808D01*
X21672Y276567D01*
X22728Y275511D01*
X23969Y274681D01*
X25348Y274110D01*
X26813Y273819D01*
X28306D01*
X29770Y274110D01*
X31149Y274681D01*
X32390Y275511D01*
X33446Y276567D01*
X34275Y277808D01*
X34846Y279187D01*
X35138Y280651D01*
Y282144D01*
X34846Y283608D01*
X34275Y284987D01*
X33446Y286229D01*
X32390Y287284D01*
X31149Y288114D01*
X29770Y288685D01*
X28306Y288976D01*
D02*
G37*
G36*
X174803Y282283D02*
X171457D01*
Y277953D01*
X172022D01*
Y272933D01*
X171457D01*
Y272171D01*
X168469D01*
X168431Y272263D01*
X167933Y272762D01*
X167281Y273031D01*
X166577D01*
X165926Y272762D01*
X165427Y272263D01*
X165157Y271612D01*
Y270907D01*
X165427Y270256D01*
X165926Y269758D01*
X166577Y269488D01*
X167281D01*
X167933Y269758D01*
X168431Y270256D01*
X168469Y270349D01*
X171457D01*
Y268602D01*
X171973D01*
Y263484D01*
X171457D01*
Y259154D01*
X174803D01*
Y263484D01*
X173795D01*
Y268602D01*
X174803D01*
Y272933D01*
X173844D01*
Y277953D01*
X174803D01*
Y282283D01*
D02*
G37*
G36*
X180512Y272933D02*
X177165D01*
Y268602D01*
X180512D01*
Y269764D01*
X182677D01*
Y268799D01*
X186614D01*
Y272736D01*
X182677D01*
Y271771D01*
X180512D01*
Y272933D01*
D02*
G37*
G36*
X235744Y274850D02*
X194116D01*
X193767Y274781D01*
X193472Y274583D01*
X191625Y272736D01*
X188976D01*
Y268799D01*
X192913D01*
Y271448D01*
X194494Y273028D01*
X226431D01*
X226850Y272833D01*
X226850Y272528D01*
Y267330D01*
X221750Y262230D01*
X192913D01*
Y263287D01*
X188976D01*
Y259350D01*
X192913D01*
Y260408D01*
X222128D01*
X222477Y260477D01*
X222772Y260675D01*
X228139Y266041D01*
X230394D01*
Y268526D01*
X231850D01*
Y266041D01*
X235394D01*
Y272294D01*
X235894Y272501D01*
X236850Y271544D01*
Y266041D01*
X240394D01*
Y268526D01*
X241850D01*
Y266041D01*
X245394D01*
Y272833D01*
X241850D01*
Y270348D01*
X240394D01*
Y272833D01*
X238139D01*
X236388Y274583D01*
X236093Y274781D01*
X235744Y274850D01*
D02*
G37*
G36*
X180512Y263484D02*
X177165D01*
Y259154D01*
X180512D01*
Y260315D01*
X182677D01*
Y259350D01*
X186614D01*
Y263287D01*
X182677D01*
Y262322D01*
X180512D01*
Y263484D01*
D02*
G37*
G36*
X235394Y251478D02*
X231850D01*
Y246244D01*
X231822Y246225D01*
X229769Y244172D01*
X229572Y243876D01*
X229502Y243528D01*
Y242421D01*
X228248D01*
Y239075D01*
X232579D01*
Y242421D01*
X231325D01*
Y243150D01*
X232861Y244687D01*
X235394D01*
Y251478D01*
D02*
G37*
G36*
X245394D02*
X241850D01*
Y244687D01*
X242711D01*
Y242224D01*
X241929D01*
Y238878D01*
X246260D01*
Y242224D01*
X244533D01*
Y244687D01*
X245394D01*
Y251478D01*
D02*
G37*
G36*
X55855Y242992D02*
X54381D01*
X52936Y242705D01*
X51575Y242141D01*
X50350Y241322D01*
X49308Y240280D01*
X48489Y239055D01*
X47925Y237694D01*
X47638Y236249D01*
Y234775D01*
X47925Y233330D01*
X48489Y231969D01*
X49308Y230743D01*
X50350Y229701D01*
X51575Y228883D01*
X52936Y228319D01*
X54381Y228031D01*
X55855D01*
X57300Y228319D01*
X58661Y228883D01*
X59886Y229701D01*
X60928Y230743D01*
X61747Y231969D01*
X62311Y233330D01*
X62598Y234775D01*
Y236249D01*
X62311Y237694D01*
X61747Y239055D01*
X60928Y240280D01*
X59886Y241322D01*
X58661Y242141D01*
X57300Y242705D01*
X55855Y242992D01*
D02*
G37*
G36*
X246260Y236516D02*
X241929D01*
Y233169D01*
X243183D01*
Y227937D01*
X240567Y225321D01*
X238878D01*
Y226083D01*
X234547D01*
Y222736D01*
X235309D01*
Y216339D01*
X234252D01*
Y209646D01*
X238189D01*
Y216339D01*
X237132D01*
Y222736D01*
X238878D01*
Y223498D01*
X240945D01*
X241294Y223568D01*
X241589Y223765D01*
X244739Y226915D01*
X244936Y227210D01*
X245006Y227559D01*
Y233169D01*
X246260D01*
Y236516D01*
D02*
G37*
G36*
X249663Y232480D02*
X248959D01*
X248307Y232211D01*
X247809Y231712D01*
X247539Y231061D01*
Y230356D01*
X247809Y229705D01*
X248307Y229207D01*
X248959Y228937D01*
X249499D01*
X251772Y226664D01*
Y224410D01*
X255709D01*
Y227953D01*
X253060D01*
X250958Y230055D01*
X251083Y230356D01*
Y231061D01*
X250813Y231712D01*
X250315Y232211D01*
X249663Y232480D01*
D02*
G37*
G36*
X196603Y239055D02*
X195129D01*
X193684Y238768D01*
X192323Y238204D01*
X191098Y237385D01*
X190056Y236343D01*
X189237Y235118D01*
X188673Y233757D01*
X188386Y232312D01*
Y230838D01*
X188673Y229393D01*
X189237Y228032D01*
X190056Y226806D01*
X191098Y225764D01*
X192323Y224946D01*
X193684Y224382D01*
X195129Y224095D01*
X196603D01*
X198048Y224382D01*
X199409Y224946D01*
X200635Y225764D01*
X201677Y226806D01*
X202495Y228032D01*
X203059Y229393D01*
X203346Y230838D01*
Y232312D01*
X203059Y233757D01*
X202495Y235118D01*
X201677Y236343D01*
X200635Y237385D01*
X199409Y238204D01*
X198048Y238768D01*
X196603Y239055D01*
D02*
G37*
G36*
X255709Y221260D02*
X251772D01*
Y217717D01*
X252829D01*
Y216339D01*
X251969D01*
Y209646D01*
X255906D01*
Y216339D01*
X254651D01*
Y217717D01*
X255709D01*
Y221260D01*
D02*
G37*
G36*
X232579Y236713D02*
X228248D01*
Y233366D01*
X229502D01*
Y227165D01*
X228740D01*
Y222835D01*
X229502D01*
Y216339D01*
X228346D01*
Y209646D01*
X232283D01*
Y216339D01*
X231325D01*
Y222835D01*
X232087D01*
Y227165D01*
X231325D01*
Y233366D01*
X232579D01*
Y236713D01*
D02*
G37*
G36*
X220472Y216339D02*
X216535D01*
Y209646D01*
X220472D01*
Y216339D01*
D02*
G37*
G36*
X214567D02*
X210630D01*
Y209646D01*
X214567D01*
Y216339D01*
D02*
G37*
G36*
X196850D02*
X192913D01*
Y209646D01*
X196850D01*
Y216339D01*
D02*
G37*
G36*
X179921Y196260D02*
X173228D01*
Y194415D01*
X170241D01*
X170203Y194508D01*
X169704Y195006D01*
X169053Y195276D01*
X168348D01*
X167697Y195006D01*
X167199Y194508D01*
X166929Y193856D01*
Y193151D01*
X167199Y192500D01*
X167697Y192002D01*
X168348Y191732D01*
X169053D01*
X169704Y192002D01*
X170203Y192500D01*
X170241Y192593D01*
X173228D01*
Y192323D01*
X179921D01*
Y196260D01*
D02*
G37*
G36*
Y190354D02*
X173228D01*
Y188416D01*
X170126D01*
X170087Y188509D01*
X169589Y189007D01*
X168938Y189277D01*
X168233D01*
X167582Y189007D01*
X167084Y188509D01*
X166814Y187857D01*
Y187153D01*
X167084Y186502D01*
X167582Y186003D01*
X168233Y185733D01*
X168938D01*
X169589Y186003D01*
X170087Y186502D01*
X170126Y186594D01*
X173228D01*
Y186417D01*
X179921D01*
Y190354D01*
D02*
G37*
G36*
Y184449D02*
X173228D01*
Y180512D01*
X179921D01*
Y184449D01*
D02*
G37*
G36*
Y178543D02*
X173228D01*
Y174606D01*
X179921D01*
Y178543D01*
D02*
G37*
G36*
Y172638D02*
X173228D01*
Y168701D01*
X179921D01*
Y172638D01*
D02*
G37*
G36*
Y166732D02*
X173228D01*
Y162795D01*
X179921D01*
Y166732D01*
D02*
G37*
G36*
Y160827D02*
X173228D01*
Y156890D01*
X179921D01*
Y160827D01*
D02*
G37*
G36*
X250000Y143504D02*
X246063D01*
Y136811D01*
X250000D01*
Y143504D01*
D02*
G37*
G36*
X232283D02*
X228346D01*
Y136811D01*
X232283D01*
Y143504D01*
D02*
G37*
G36*
X226378D02*
X222441D01*
Y136811D01*
X226378D01*
Y143504D01*
D02*
G37*
G36*
X220472D02*
X216535D01*
Y136811D01*
X220472D01*
Y143504D01*
D02*
G37*
G36*
X214567D02*
X210630D01*
Y136811D01*
X214567D01*
Y143504D01*
D02*
G37*
G36*
X208661D02*
X204724D01*
Y136811D01*
X208661D01*
Y143504D01*
D02*
G37*
G36*
X202756D02*
X198819D01*
Y136811D01*
X202756D01*
Y143504D01*
D02*
G37*
G36*
X196850D02*
X192913D01*
Y136811D01*
X196850D01*
Y143504D01*
D02*
G37*
G36*
X244094D02*
X240158D01*
X240158Y136811D01*
X239706Y136693D01*
X239421D01*
X238570Y136524D01*
X238189Y136958D01*
Y143504D01*
X234252D01*
Y136811D01*
X237648D01*
X237748Y136311D01*
X236614Y135842D01*
X235389Y135023D01*
X234347Y133981D01*
X233528Y132756D01*
X232965Y131395D01*
X232677Y129949D01*
Y128476D01*
X232965Y127031D01*
X233528Y125669D01*
X234347Y124444D01*
X235389Y123402D01*
X236614Y122584D01*
X237976Y122020D01*
X239421Y121732D01*
X240894D01*
X242339Y122020D01*
X243701Y122584D01*
X244926Y123402D01*
X245968Y124444D01*
X246786Y125669D01*
X247350Y127031D01*
X247638Y128476D01*
Y129949D01*
X247350Y131395D01*
X246786Y132756D01*
X245968Y133981D01*
X244926Y135023D01*
X243701Y135842D01*
X242567Y136311D01*
X242667Y136811D01*
X244094D01*
Y143504D01*
D02*
G37*
G36*
X75590Y129921D02*
X67323D01*
Y126378D01*
X75590D01*
Y129921D01*
D02*
G37*
G36*
Y125591D02*
X67323D01*
Y122047D01*
X75590D01*
Y125591D01*
D02*
G37*
G36*
X126135Y121551D02*
X125430D01*
X124779Y121281D01*
X124281Y120782D01*
X124221Y120637D01*
X75590D01*
Y121260D01*
X67323D01*
Y117717D01*
X75590D01*
Y118630D01*
X124426D01*
X124779Y118277D01*
X125430Y118007D01*
X126135D01*
X126786Y118277D01*
X127285Y118775D01*
X127554Y119426D01*
Y120131D01*
X127285Y120782D01*
X126786Y121281D01*
X126135Y121551D01*
D02*
G37*
G36*
X28341Y124803D02*
X27564D01*
X26813Y124602D01*
X26140Y124213D01*
X25590Y123663D01*
X25201Y122990D01*
X25000Y122239D01*
Y121462D01*
X25201Y120711D01*
X25590Y120037D01*
X26140Y119488D01*
X26813Y119099D01*
X27564Y118898D01*
X28341D01*
X29092Y119099D01*
X29766Y119488D01*
X30316Y120037D01*
X30704Y120711D01*
X30906Y121462D01*
Y122239D01*
X30704Y122990D01*
X30316Y123663D01*
X29766Y124213D01*
X29092Y124602D01*
X28341Y124803D01*
D02*
G37*
G36*
X132085Y113118D02*
X131191D01*
X130328Y112887D01*
X129554Y112440D01*
X128922Y111808D01*
X128475Y111034D01*
X128244Y110171D01*
Y109278D01*
X128475Y108414D01*
X128922Y107641D01*
X129554Y107009D01*
X130328Y106562D01*
X131191Y106331D01*
X132085D01*
X132948Y106562D01*
X133722Y107009D01*
X134353Y107641D01*
X134800Y108414D01*
X135031Y109278D01*
Y110171D01*
X134800Y111034D01*
X134353Y111808D01*
X133722Y112440D01*
X132948Y112887D01*
X132085Y113118D01*
D02*
G37*
G36*
X248386Y115405D02*
X246890D01*
X245445Y115018D01*
X244149Y114270D01*
X243092Y113213D01*
X242344Y111917D01*
X241957Y110472D01*
Y108976D01*
X242344Y107532D01*
X243092Y106236D01*
X244149Y105178D01*
X245445Y104430D01*
X246890Y104043D01*
X248386D01*
X249831Y104430D01*
X251126Y105178D01*
X252184Y106236D01*
X252932Y107532D01*
X253319Y108976D01*
Y110472D01*
X252932Y111917D01*
X252184Y113213D01*
X251126Y114270D01*
X249831Y115018D01*
X248386Y115405D01*
D02*
G37*
G36*
X100746Y99803D02*
X100041D01*
X99390Y99533D01*
X98892Y99035D01*
X98813Y98844D01*
X75590D01*
Y99606D01*
X67323D01*
Y96063D01*
X75590D01*
Y97022D01*
X98898D01*
X99390Y96530D01*
X100041Y96260D01*
X100746D01*
X101397Y96530D01*
X101896Y97028D01*
X102165Y97679D01*
Y98384D01*
X101896Y99035D01*
X101397Y99533D01*
X100746Y99803D01*
D02*
G37*
G36*
X75590Y95276D02*
X67323D01*
Y91732D01*
X75590D01*
Y95276D01*
D02*
G37*
G36*
X27953Y94907D02*
X27182Y94806D01*
X26464Y94508D01*
X25847Y94035D01*
X25374Y93418D01*
X25076Y92700D01*
X24974Y91929D01*
Y88779D01*
X25076Y88009D01*
X25374Y87290D01*
X25847Y86674D01*
X26464Y86200D01*
X27182Y85903D01*
X27953Y85801D01*
X28724Y85903D01*
X29442Y86200D01*
X30059Y86674D01*
X30532Y87290D01*
X30830Y88009D01*
X30931Y88779D01*
Y91929D01*
X30830Y92700D01*
X30532Y93418D01*
X30059Y94035D01*
X29442Y94508D01*
X28724Y94806D01*
X27953Y94907D01*
D02*
G37*
G36*
X162557Y203346D02*
X161852D01*
X161201Y203077D01*
X160703Y202578D01*
X160433Y201927D01*
Y201222D01*
X160703Y200571D01*
X161201Y200073D01*
X161201Y200073D01*
Y147478D01*
X161278Y147094D01*
X161495Y146768D01*
X175079Y133184D01*
Y82109D01*
X169663Y76692D01*
X136089D01*
X134642Y78140D01*
X134800Y78414D01*
X135031Y79278D01*
Y80171D01*
X134800Y81034D01*
X134353Y81808D01*
X133722Y82440D01*
X132948Y82887D01*
X132085Y83118D01*
X131191D01*
X130328Y82887D01*
X129554Y82440D01*
X128922Y81808D01*
X128475Y81034D01*
X128244Y80171D01*
Y79278D01*
X128475Y78414D01*
X128922Y77641D01*
X129554Y77009D01*
X130328Y76562D01*
X131191Y76331D01*
X132085D01*
X132948Y76562D01*
X133222Y76721D01*
X134964Y74979D01*
X134911Y74417D01*
X133222Y72728D01*
X132948Y72887D01*
X132085Y73118D01*
X131191D01*
X130328Y72887D01*
X129554Y72440D01*
X128922Y71808D01*
X128475Y71034D01*
X128244Y70171D01*
Y69278D01*
X128475Y68414D01*
X128922Y67641D01*
X129554Y67009D01*
X130328Y66562D01*
X131191Y66331D01*
X132085D01*
X132948Y66562D01*
X133722Y67009D01*
X134353Y67641D01*
X134800Y68414D01*
X135031Y69278D01*
Y70171D01*
X134800Y71034D01*
X134642Y71309D01*
X136443Y73111D01*
X170731D01*
X171115Y73187D01*
X171441Y73405D01*
X178367Y80331D01*
X178585Y80657D01*
X178661Y81041D01*
Y85371D01*
Y134252D01*
X178585Y134636D01*
X178367Y134962D01*
X165964Y147364D01*
Y197711D01*
X165964Y197711D01*
X166463Y198209D01*
X166732Y198860D01*
Y199565D01*
X166463Y200216D01*
X165964Y200714D01*
X165313Y200984D01*
X164608D01*
X164380Y200890D01*
X164118Y201105D01*
X163976Y201264D01*
Y201927D01*
X163707Y202578D01*
X163208Y203077D01*
X162557Y203346D01*
D02*
G37*
G36*
X132085Y63118D02*
X131191D01*
X130328Y62887D01*
X129554Y62440D01*
X128922Y61808D01*
X128475Y61034D01*
X128244Y60171D01*
Y59278D01*
X128475Y58415D01*
X128922Y57641D01*
X129554Y57009D01*
X130328Y56562D01*
X131191Y56331D01*
X132085D01*
X132948Y56562D01*
X133722Y57009D01*
X134353Y57641D01*
X134800Y58415D01*
X135031Y59278D01*
Y60171D01*
X134800Y61034D01*
X134353Y61808D01*
X133722Y62440D01*
X132948Y62887D01*
X132085Y63118D01*
D02*
G37*
G36*
Y53118D02*
X131191D01*
X130328Y52887D01*
X129554Y52440D01*
X128922Y51808D01*
X128475Y51034D01*
X128244Y50171D01*
Y49278D01*
X128475Y48414D01*
X128922Y47641D01*
X129554Y47009D01*
X130328Y46562D01*
X131191Y46331D01*
X132085D01*
X132948Y46562D01*
X133722Y47009D01*
X134353Y47641D01*
X134800Y48414D01*
X135031Y49278D01*
Y50171D01*
X134800Y51034D01*
X134353Y51808D01*
X133722Y52440D01*
X132948Y52887D01*
X132085Y53118D01*
D02*
G37*
G36*
Y43118D02*
X131191D01*
X130328Y42887D01*
X129554Y42440D01*
X128922Y41808D01*
X128475Y41034D01*
X128244Y40171D01*
Y39278D01*
X128475Y38414D01*
X128922Y37641D01*
X129554Y37009D01*
X130328Y36562D01*
X131191Y36331D01*
X132085D01*
X132948Y36562D01*
X133722Y37009D01*
X134353Y37641D01*
X134800Y38414D01*
X135031Y39278D01*
Y40171D01*
X134800Y41034D01*
X134353Y41808D01*
X133722Y42440D01*
X132948Y42887D01*
X132085Y43118D01*
D02*
G37*
G36*
X55855Y47126D02*
X54381D01*
X52936Y46839D01*
X51575Y46275D01*
X50350Y45456D01*
X49308Y44414D01*
X48489Y43189D01*
X47925Y41828D01*
X47638Y40382D01*
Y38909D01*
X47925Y37464D01*
X48489Y36102D01*
X49308Y34877D01*
X50350Y33835D01*
X51575Y33017D01*
X52936Y32453D01*
X54381Y32165D01*
X55855D01*
X57300Y32453D01*
X58661Y33017D01*
X59886Y33835D01*
X60928Y34877D01*
X61747Y36102D01*
X62311Y37464D01*
X62598Y38909D01*
Y40382D01*
X62311Y41828D01*
X61747Y43189D01*
X60928Y44414D01*
X59886Y45456D01*
X58661Y46275D01*
X57300Y46839D01*
X55855Y47126D01*
D02*
G37*
G36*
X132085Y33118D02*
X131191D01*
X130328Y32887D01*
X129554Y32440D01*
X128922Y31808D01*
X128475Y31034D01*
X128244Y30171D01*
Y29278D01*
X128475Y28414D01*
X128922Y27641D01*
X129554Y27009D01*
X130328Y26562D01*
X131191Y26331D01*
X132085D01*
X132948Y26562D01*
X133722Y27009D01*
X134353Y27641D01*
X134800Y28414D01*
X135031Y29278D01*
Y30171D01*
X134800Y31034D01*
X134353Y31808D01*
X133722Y32440D01*
X132948Y32887D01*
X132085Y33118D01*
D02*
G37*
G36*
X248386Y35405D02*
X246890D01*
X245445Y35018D01*
X244149Y34270D01*
X243092Y33213D01*
X242344Y31917D01*
X241957Y30472D01*
Y28977D01*
X242344Y27532D01*
X243092Y26236D01*
X244149Y25178D01*
X245445Y24430D01*
X246890Y24043D01*
X248386D01*
X249831Y24430D01*
X251126Y25178D01*
X252184Y26236D01*
X252932Y27532D01*
X253319Y28977D01*
Y30472D01*
X252932Y31917D01*
X252184Y33213D01*
X251126Y34270D01*
X249831Y35018D01*
X248386Y35405D01*
D02*
G37*
G36*
X28306Y34843D02*
X26813D01*
X25348Y34551D01*
X23969Y33980D01*
X22728Y33151D01*
X21672Y32095D01*
X20843Y30854D01*
X20272Y29474D01*
X19980Y28010D01*
Y26517D01*
X20272Y25053D01*
X20843Y23674D01*
X21672Y22433D01*
X22728Y21377D01*
X23969Y20548D01*
X25348Y19976D01*
X26813Y19685D01*
X28306D01*
X29770Y19976D01*
X31149Y20548D01*
X32390Y21377D01*
X33446Y22433D01*
X34275Y23674D01*
X34846Y25053D01*
X35138Y26517D01*
Y28010D01*
X34846Y29474D01*
X34275Y30854D01*
X33446Y32095D01*
X32390Y33151D01*
X31149Y33980D01*
X29770Y34551D01*
X28306Y34843D01*
D02*
G37*
G36*
X273876Y34744D02*
X272383D01*
X270919Y34453D01*
X269540Y33882D01*
X268299Y33052D01*
X267243Y31997D01*
X266414Y30755D01*
X265842Y29376D01*
X265551Y27912D01*
Y26419D01*
X265842Y24955D01*
X266414Y23575D01*
X267243Y22334D01*
X268299Y21279D01*
X269540Y20449D01*
X270919Y19878D01*
X272383Y19587D01*
X273876D01*
X275341Y19878D01*
X276720Y20449D01*
X277961Y21279D01*
X279017Y22334D01*
X279846Y23575D01*
X280417Y24955D01*
X280709Y26419D01*
Y27912D01*
X280417Y29376D01*
X279846Y30755D01*
X279017Y31997D01*
X277961Y33052D01*
X276720Y33882D01*
X275341Y34453D01*
X273876Y34744D01*
D02*
G37*
%LPD*%
G36*
X159719Y280823D02*
Y252658D01*
X159788Y252309D01*
X159986Y252013D01*
X161607Y250392D01*
X161571Y250163D01*
X161428Y249891D01*
X125216D01*
X124435Y250673D01*
Y260261D01*
X124935Y260431D01*
X125415Y259805D01*
X126320Y259111D01*
X127373Y258675D01*
X128504Y258526D01*
X129634Y258675D01*
X130688Y259111D01*
X131593Y259805D01*
X132287Y260710D01*
X132723Y261763D01*
X132872Y262894D01*
Y272502D01*
X140453D01*
X141583Y272651D01*
X142637Y273087D01*
X143542Y273781D01*
X144236Y274686D01*
X144672Y275740D01*
X144821Y276870D01*
X144672Y278001D01*
X144236Y279054D01*
X143542Y279959D01*
X142840Y280497D01*
X142618Y280906D01*
Y281667D01*
X151772D01*
Y278937D01*
X157283D01*
Y282061D01*
X158481D01*
X159719Y280823D01*
D02*
G37*
G36*
X244665Y215436D02*
X245314Y214787D01*
X245374Y214642D01*
Y205757D01*
Y203431D01*
X239567D01*
Y204823D01*
Y214740D01*
X239627Y214885D01*
X240177Y215436D01*
X240321Y215495D01*
X240321Y215495D01*
X244521D01*
X244665Y215436D01*
D02*
G37*
G36*
X108707Y109626D02*
X108929Y109405D01*
X108721Y108905D01*
X76028D01*
X75590Y109055D01*
Y109817D01*
X108628D01*
X108707Y109626D01*
D02*
G37*
G36*
X163957Y197555D02*
Y147978D01*
X163471Y147763D01*
X163208Y147973D01*
Y197517D01*
X163708Y197747D01*
X163957Y197555D01*
D02*
G37*
D11*
X110110Y110728D02*
X110209Y110630D01*
X71555Y110728D02*
X110110D01*
X71555Y102264D02*
X98630D01*
X98728Y102362D01*
X71457Y102165D02*
X71555Y102264D01*
X100295Y97933D02*
X100394Y98032D01*
X71752Y97933D02*
X100295D01*
X71457Y110827D02*
X71555Y110728D01*
Y97736D02*
X71752Y97933D01*
X71457Y97835D02*
X71555Y97736D01*
X249311Y230413D02*
X253543Y226181D01*
X249311Y230413D02*
Y230709D01*
X244094Y227559D02*
Y234842D01*
X236713Y224410D02*
X240945D01*
X244094Y227559D01*
X236221Y223917D02*
X236713Y224410D01*
X243622Y241024D02*
X244094Y240551D01*
X243622Y241024D02*
Y248083D01*
X236221Y211910D02*
Y223917D01*
X232467Y245581D02*
X232744D01*
X233622Y246459D01*
X230413Y240748D02*
Y243528D01*
X232467Y245581D01*
X233622Y246459D02*
Y248083D01*
X230413Y225000D02*
Y235039D01*
X230315Y211910D02*
X230413Y212008D01*
Y225000D01*
X236713Y230118D02*
X236742Y230148D01*
X172884Y261467D02*
X173031Y261319D01*
X253543Y226181D02*
X253740D01*
X211516Y228051D02*
Y240530D01*
X172933Y270965D02*
Y279921D01*
X253740Y212106D02*
X253937Y211910D01*
X205894Y248980D02*
X213779Y241095D01*
X228622Y267813D02*
Y269437D01*
Y248083D02*
Y249707D01*
X194116Y273939D02*
X235744D01*
X187902Y210835D02*
X188976Y211910D01*
X168585Y187505D02*
X176777D01*
X176870Y193504D02*
X176969Y193602D01*
X172638Y271260D02*
X172933Y270965D01*
X238622Y269437D02*
X243622D01*
X200787Y211910D02*
Y217323D01*
X118504Y248721D02*
Y262894D01*
X224410Y211910D02*
Y218602D01*
X86741Y250070D02*
X90158Y246654D01*
X162307Y250980D02*
X206723D01*
X238622Y248083D02*
X238651Y248053D01*
X118504Y278642D02*
X123524Y273622D01*
X176969Y152264D02*
X178347D01*
X123524Y250295D02*
Y273622D01*
X248031Y210531D02*
Y211910D01*
X160630Y252658D02*
Y281201D01*
X172933Y279921D02*
X173130Y280118D01*
X213779Y227165D02*
Y241095D01*
X222128Y261319D02*
X228622Y267813D01*
X215907Y227105D02*
Y241796D01*
X235744Y273939D02*
X238622Y271061D01*
X187902Y212984D02*
X188976Y211910D01*
X190945Y270768D02*
X194116Y273939D01*
X176969Y199508D02*
X178347D01*
X176777Y187505D02*
X176969Y187697D01*
X172736Y270768D02*
X172884Y270620D01*
X120244Y246980D02*
X205066D01*
X206693Y211910D02*
Y220079D01*
X114272Y246654D02*
X116142Y244783D01*
X215907Y227105D02*
X224410Y218602D01*
X90158Y246654D02*
X114272D01*
X160630Y252658D02*
X162307Y250980D01*
X124839Y248980D02*
X205894D01*
X253937Y139862D02*
Y141240D01*
X158858Y282972D02*
X160630Y281201D01*
X140453Y282579D02*
X154134D01*
X172884Y261467D02*
Y270620D01*
X205066Y246980D02*
X211516Y240530D01*
X172736Y270768D02*
X172933Y270965D01*
X253740Y212106D02*
Y219488D01*
X206723Y250980D02*
X215907Y241796D01*
X190945Y261319D02*
X222128D01*
X247689Y212252D02*
X248031Y211910D01*
X238622Y248083D02*
Y249707D01*
Y269437D02*
Y271061D01*
X187902Y212984D02*
Y214461D01*
X168701Y193504D02*
X176870D01*
X166929Y271260D02*
X172638D01*
X228622Y269437D02*
X233622D01*
X200787Y217323D02*
X211516Y228051D01*
X118504Y248721D02*
X120244Y246980D01*
X206693Y220079D02*
X213779Y227165D01*
X116142Y236004D02*
Y244783D01*
X178839Y280118D02*
X184646D01*
X86741Y250070D02*
Y257869D01*
X140104Y277219D02*
X140453Y276870D01*
X123524Y250295D02*
X124839Y248980D01*
X188976Y210531D02*
Y211910D01*
X154527Y282972D02*
X158858D01*
X154134Y282579D02*
X154527Y282972D01*
D16*
X224409Y140157D02*
D03*
X218504D02*
D03*
X212598D02*
D03*
X206693D02*
D03*
X200787D02*
D03*
X194882D02*
D03*
X236220D02*
D03*
X248031D02*
D03*
X242126D02*
D03*
X188976D02*
D03*
X230315D02*
D03*
X253937D02*
D03*
X206693Y212992D02*
D03*
X200787D02*
D03*
X194882D02*
D03*
X188976D02*
D03*
X259842D02*
D03*
X253937D02*
D03*
X248031D02*
D03*
X242126D02*
D03*
X212598D02*
D03*
X236221D02*
D03*
X230315D02*
D03*
X224410D02*
D03*
X218504D02*
D03*
D17*
X176575Y176575D02*
D03*
Y170669D02*
D03*
Y164764D02*
D03*
Y158858D02*
D03*
Y152953D02*
D03*
Y182480D02*
D03*
Y188386D02*
D03*
Y194291D02*
D03*
Y200197D02*
D03*
D18*
X29528Y71457D02*
D03*
Y133268D02*
D03*
D19*
X71457Y93504D02*
D03*
Y97835D02*
D03*
Y102165D02*
D03*
Y106496D02*
D03*
Y110827D02*
D03*
Y115157D02*
D03*
Y119488D02*
D03*
Y123819D02*
D03*
Y128150D02*
D03*
D20*
X67323Y73228D02*
D03*
Y134252D02*
D03*
D21*
X230413Y225000D02*
D03*
X224705D02*
D03*
X178839Y261319D02*
D03*
X173130D02*
D03*
X178839Y270768D02*
D03*
X173130D02*
D03*
X178839Y280118D02*
D03*
X173130D02*
D03*
D22*
X236713Y224410D02*
D03*
Y230118D02*
D03*
X230413Y240748D02*
D03*
Y235039D02*
D03*
X244094Y240551D02*
D03*
Y234842D02*
D03*
X140453Y276870D02*
D03*
Y282579D02*
D03*
D23*
X228622Y269437D02*
D03*
X233622D02*
D03*
X238622D02*
D03*
X243622D02*
D03*
Y248083D02*
D03*
X238622D02*
D03*
X233622D02*
D03*
X228622D02*
D03*
D24*
X253740Y219488D02*
D03*
Y226181D02*
D03*
D25*
X152953Y124119D02*
D03*
Y111914D02*
D03*
X166732Y124119D02*
D03*
Y111914D02*
D03*
D26*
X190945Y261319D02*
D03*
X184646D02*
D03*
X190945Y270768D02*
D03*
X184646D02*
D03*
X190945Y280118D02*
D03*
X184646D02*
D03*
D27*
X86811Y257677D02*
D03*
Y282283D02*
D03*
X154528Y282776D02*
D03*
Y258169D02*
D03*
D44*
X131638Y109724D02*
D03*
Y99724D02*
D03*
Y89724D02*
D03*
Y79724D02*
D03*
Y69724D02*
D03*
Y59724D02*
D03*
Y49724D02*
D03*
Y39724D02*
D03*
Y29724D02*
D03*
D47*
X168996Y219882D02*
X190059Y198819D01*
X161417Y219882D02*
X168996D01*
X190059Y198819D02*
X237513D01*
X73622Y227264D02*
X81004Y219882D01*
X146457D01*
X115551Y106496D02*
X122323Y99724D01*
X131638D01*
X152953Y124119D02*
X166732D01*
X146457D02*
X152953D01*
X146457Y219882D02*
X161417D01*
X146457Y124119D02*
Y219882D01*
X141437Y119099D02*
X146457Y124119D01*
X141437Y104337D02*
Y119099D01*
X73622Y277258D02*
X78943Y282579D01*
X95079Y287500D02*
X122120D01*
X78943Y282579D02*
X90158D01*
X161142Y220158D02*
X161417Y219882D01*
X131638Y99724D02*
X136825D01*
X128504Y278642D02*
Y281116D01*
X73622Y227264D02*
Y277258D01*
X128504Y278642D02*
X130276Y276870D01*
X237513Y198819D02*
X242126Y203431D01*
X136825Y99724D02*
X141437Y104337D01*
X90158Y282579D02*
X95079Y287500D01*
X122120D02*
X128504Y281116D01*
X130276Y276870D02*
X140453D01*
X128504Y262894D02*
Y278642D01*
D48*
X178839Y261319D02*
X184646D01*
X178839Y270768D02*
X184646D01*
X178839Y270768D02*
X178839Y270768D01*
X71457Y119488D02*
X71602Y119633D01*
X125637D01*
X125783Y119779D01*
X162205Y147478D02*
X176083Y133600D01*
X162205Y147478D02*
Y201575D01*
X164961Y146949D02*
Y199213D01*
Y146949D02*
X177657Y134252D01*
X170079Y75689D02*
X176083Y81693D01*
X135673Y75689D02*
X170079D01*
X177657Y85371D02*
Y134252D01*
X166400Y74114D02*
X170731D01*
X131638Y69724D02*
X136028Y74114D01*
X166400D01*
X170731D02*
X177657Y81041D01*
Y85371D01*
X176083Y81693D02*
Y133600D01*
X131638Y79724D02*
X135673Y75689D01*
D49*
X71457Y106496D02*
X115551D01*
D50*
X161142Y220158D02*
Y231004D01*
D51*
X27953Y90354D02*
D03*
D52*
Y121850D02*
D03*
D53*
X108504Y262894D02*
D03*
X118504D02*
D03*
X108504Y278642D02*
D03*
X118504D02*
D03*
D54*
X128504Y262894D02*
D03*
Y278642D02*
D03*
D55*
X181142Y231004D02*
D03*
Y236004D02*
D03*
X176142D02*
D03*
Y231004D02*
D03*
X171142D02*
D03*
Y236004D02*
D03*
X166142D02*
D03*
Y231004D02*
D03*
X161142D02*
D03*
Y236004D02*
D03*
X156142D02*
D03*
Y231004D02*
D03*
X151142D02*
D03*
Y236004D02*
D03*
X146142D02*
D03*
Y231004D02*
D03*
X141142D02*
D03*
Y236004D02*
D03*
X136142D02*
D03*
Y231004D02*
D03*
X131142D02*
D03*
Y236004D02*
D03*
X126142D02*
D03*
Y231004D02*
D03*
X121142D02*
D03*
Y236004D02*
D03*
X116142D02*
D03*
Y231004D02*
D03*
D56*
X110209Y110630D02*
D03*
X98728Y102362D02*
D03*
X100394Y98032D02*
D03*
X125783Y119779D02*
D03*
X162205Y201575D02*
D03*
X164961Y199213D02*
D03*
X249311Y230709D02*
D03*
X168701Y193504D02*
D03*
X153937Y251870D02*
D03*
X245472Y219488D02*
D03*
X168585Y187505D02*
D03*
X181299Y255217D02*
D03*
X166929Y271260D02*
D03*
M02*
