G04*
G04 #@! TF.GenerationSoftware,Altium Limited,Altium Designer,23.10.1 (27)*
G04*
G04 Layer_Color=255*
%FSLAX25Y25*%
%MOIN*%
G70*
G04*
G04 #@! TF.SameCoordinates,0F76161B-FDE3-46C5-8999-B479EBFB7D10*
G04*
G04*
G04 #@! TF.FilePolarity,Positive*
G04*
G01*
G75*
%ADD44C,0.06000*%
%ADD51O,0.03543X0.06693*%
%ADD52C,0.03543*%
%ADD53C,0.06299*%
G04:AMPARAMS|DCode=54|XSize=62.99mil|YSize=62.99mil|CornerRadius=15.75mil|HoleSize=0mil|Usage=FLASHONLY|Rotation=180.000|XOffset=0mil|YOffset=0mil|HoleType=Round|Shape=RoundedRectangle|*
%AMROUNDEDRECTD54*
21,1,0.06299,0.03150,0,0,180.0*
21,1,0.03150,0.06299,0,0,180.0*
1,1,0.03150,-0.01575,0.01575*
1,1,0.03150,0.01575,0.01575*
1,1,0.03150,0.01575,-0.01575*
1,1,0.03150,-0.01575,-0.01575*
%
%ADD54ROUNDEDRECTD54*%
%ADD55C,0.03937*%
%ADD58R,0.07000X0.07000*%
D44*
X229035Y230709D02*
D03*
X131638Y109724D02*
D03*
Y99724D02*
D03*
Y89724D02*
D03*
Y79724D02*
D03*
Y69724D02*
D03*
Y59724D02*
D03*
Y49724D02*
D03*
Y39724D02*
D03*
Y29724D02*
D03*
D51*
X27953Y90354D02*
D03*
D52*
Y121850D02*
D03*
D53*
X108504Y262894D02*
D03*
X118504D02*
D03*
X108504Y278642D02*
D03*
X118504D02*
D03*
D54*
X128504Y262894D02*
D03*
Y278642D02*
D03*
D55*
X181142Y231004D02*
D03*
Y236004D02*
D03*
X176142D02*
D03*
Y231004D02*
D03*
X171142D02*
D03*
Y236004D02*
D03*
X166142D02*
D03*
Y231004D02*
D03*
X161142D02*
D03*
Y236004D02*
D03*
X156142D02*
D03*
Y231004D02*
D03*
X151142D02*
D03*
Y236004D02*
D03*
X146142D02*
D03*
Y231004D02*
D03*
X141142D02*
D03*
Y236004D02*
D03*
X136142D02*
D03*
Y231004D02*
D03*
X131142D02*
D03*
Y236004D02*
D03*
X126142D02*
D03*
Y231004D02*
D03*
X121142D02*
D03*
Y236004D02*
D03*
X116142D02*
D03*
Y231004D02*
D03*
D58*
X219535Y221209D02*
D03*
X238535D02*
D03*
X219535Y240209D02*
D03*
X238535D02*
D03*
M02*
